<svg xmlns="http://www.w3.org/2000/svg" width="12.316" height="13"><defs><clipPath id="a"><path fill="none" d="M0 0h12.316v13H0z"/></clipPath></defs><g data-name="Icon/Calendar/Black" clip-path="url(#a)" fill="currentColor"><path data-name="Path 351" d="M1.368 1.625h9.579a1.354 1.354 0 0 1 1.368 1.338v8.7a1.354 1.354 0 0 1-1.368 1.338H1.368A1.354 1.354 0 0 1 0 11.662v-8.7a1.358 1.358 0 0 1 1.368-1.337zm0 3.346v6.691h9.579V4.971z"/><path data-name="Path 352" d="M3.057 0a.736.736 0 0 1 .62.813V3.25a.736.736 0 0 1-.62.813.736.736 0 0 1-.62-.813V.813A.736.736 0 0 1 3.057 0zm6.2 0a.736.736 0 0 1 .62.813V3.25a.736.736 0 0 1-.62.813.736.736 0 0 1-.62-.812V.813A.736.736 0 0 1 9.258 0z"/></g></svg>
