<svg xmlns="http://www.w3.org/2000/svg" width="35" height="35" viewBox="0 0 35 35">
  <path fill="currentColor" d="M21.224,5.157a17.5,17.5,0,1,0,17.5,17.5A17.5,17.5,0,0,0,21.224,5.157Zm8.815,13.972c.009.189.013.379.013.571A12.544,12.544,0,0,1,10.743,30.267a9.019,9.019,0,0,0,1.052.061,8.848,8.848,0,0,0,5.477-1.888,4.417,4.417,0,0,1-4.119-3.064,4.307,4.307,0,0,0,.829.079,4.383,4.383,0,0,0,1.162-.154,4.414,4.414,0,0,1-3.539-4.324c0-.019,0-.038,0-.057a4.4,4.4,0,0,0,2,.552,4.416,4.416,0,0,1-1.365-5.889,12.521,12.521,0,0,0,9.091,4.607,4.413,4.413,0,0,1,7.515-4.022,8.809,8.809,0,0,0,2.8-1.07,4.423,4.423,0,0,1-1.94,2.44,8.817,8.817,0,0,0,2.534-.694A8.91,8.91,0,0,1,30.039,19.129Z" transform="translate(-3.723 -5.157)"/>
</svg>
