<svg version="1.1" xmlns="http://www.w3.org/2000/svg" xmlns:xlink="http://www.w3.org/1999/xlink" x="0px" y="0px"
	 viewBox="0 0 1024 1024" style="enable-background: new 0 0 1024 1024;" xml:space="preserve">
<style type="text/css">
  .st0 { fill: #000; }
  .st1 { fill: currentColor; }
  .st2 { fill: currentColor; }
  .st3 { fill: #000; }
</style>
<path class="st0" d="M494.6,0h34.9l1,0.1c22.9,1.2,45.8,3.2,68.4,7.2c95,16,184.8,59.9,256.2,124.6
	c63.4,57.1,112.1,130.2,140.2,210.8c35.4,100.8,38,212.6,7.5,315c-26.2,88.9-77.3,170-145.8,232.3
	c-50.8,46.4-110.9,82.5-175.8,105.1c-59.9,21-123.8,30.6-187.2,28.3c-78.3-2.6-155.9-23.5-224.8-60.7
	C197,923.9,134.4,867.5,88.3,799.7c-35.2-51.7-60.8-109.9-75-170.8C7.1,602.3,3.1,575.3,1.2,548c-0.6-6.5-0.5-13.1-1.2-19.6v-34
	c1-17.4,2.1-34.8,4.6-52.1c5.9-43.4,17.4-86,34.2-126.5c25-60.4,61.8-115.8,107.6-162.4c33.9-34.6,72.7-64.4,114.9-88.1
	c51-28.7,107-48.5,164.7-58.2C448.7,3.1,471.6,1.2,494.6,0z"/>
<path class="st1" d="M535.9,5.1c81.5,3.5,162,27.3,232.3,68.7c81.1,47.6,148.7,118.2,192.7,201.3c35.9,67.6,55.8,143.4,58.1,219.9
	c1.9,55.5-5.3,111.4-21.4,164.6c-14.8,49-37.2,95.7-66.1,138c-31.6,46.3-71.1,87.4-115.9,121.1C771,952,721,978,668,995
	c-52.2,16.8-107.1,25-162,24.3c-34-0.3-67.9-4.1-101.1-11.2c-61.9-13.2-121.1-38.2-173.7-73.3C156.7,885.1,95.3,815.6,55.9,735.1
	C18.5,659,1.1,573.6,5,489c3.4-80.9,26.5-160.8,67.2-230.8c47.1-81.4,117.3-149.4,200.1-193.9C352.7,21,444.8,0.6,535.9,5.1z"/>
<path class="st0" d="M673.6,47.4c53,18.4,102.9,46.2,146.6,81.4c52.2,42,95.7,94.8,127,154.1c27.2,51.5,45,108,52.5,165.8
	c8.2,64.3,3.8,130.3-13.3,192.8c-16.3,60.2-44.4,117.1-82,166.8C856.8,871.1,794.2,922.3,723,956c-65.7,31.4-138.3,47.6-211,47.5
	c-71.3,0.1-142.4-15.4-207-45.5c-81.3-37.6-151.7-98-201.6-172.4C76.1,745,54.9,700.2,40.8,653.3C24.2,597.6,17.5,539,21.2,481
	c4.6-78.9,28.9-156.3,70-223.8c37.2-61.4,88-114.4,147.7-154.3c53.5-35.9,114.2-61,177.4-73.4C501.7,12.7,591.5,18.7,673.6,47.4z"/>
<path class="st2" d="M656.6,53.4c60.4,18.9,116.7,50.1,165,91c51.7,43.6,94.4,98.3,123.7,159.3c35.1,72.7,51.1,154.3,46.3,234.9
	c-26.8,9.5-53.8,18.9-80.6,28.5c-1.2,0.4-2.6,0.8-3.9,0.8c-3.4-1.3-6.3-3.7-9.4-5.6c-29.5-18.8-59.1-37.7-88.6-56.4
	c-1.1-0.9-2.5-1.5-2.6-3.1c-0.4-3.2-0.3-6.5-0.5-9.7c-2.5-40.6-13.6-80.6-32.3-116.7c-19.9-38.6-48.6-72.6-83.1-98.9
	c-35.6-27.2-77.3-46.1-121.3-54.7c-8.8-1.7-17.8-3.3-26.8-3.7c2.1,2,4.3,3.9,6.5,5.9c-5.4-0.5-10.4-1.3-15.8,0
	c-7.2-5.7-15.1-12.2-23.9-15.2c0,1.4,0.1,2.9,0.1,4.3c-2.3-0.4-4.5-0.8-6.8-1.1c1.2,2.4,2.7,4.7,4.2,7c-1.2,0.2-2.5,0.3-3.7,0.5
	c0.2,0.8,0.4,1.6,0.6,2.4c-3.3,0.1-6.5,0.3-9.7,0.6c-0.4,1.9-0.6,3.8-0.8,5.6c-0.2-3.7-0.4-7.4-0.4-11.1
	c-51.9,2.9-103.1,20.6-146.1,49.9c-39.5,26.7-72.4,63.1-94.8,105.2c-21.1,39.3-33,83.5-34.5,128.1c-0.2,1.4,0,3.1-1.3,4
	c-3,2.4-6.5,4.3-9.7,6.4c-27.1,17.2-54.2,34.5-81.3,51.8c-2.6,1.6-5.3,3.8-8.2,4.7c-3.8-0.5-7.6-2.3-11.3-3.6
	c-24.5-8.6-48.9-17.3-73.4-25.8c-0.7-6.1-0.8-12.3-0.9-18.5c-1.3-76.1,15.3-152.2,49.1-220.4c39.4-80.2,102.1-148.9,177.9-196.1
	c50.4-31.4,106.6-53.3,165-64C500.7,25.1,581.6,29.8,656.6,53.4z"/>
<path class="st0" d="M488.1,98.9c4.2,3.2,5.2,7.6,5.8,12.6c-2.9,0.2-5.7,0.4-8.6,0.5c-1.3-3-2.2-6.4-5.3-7.9
	c-4.1-2.2-10.1-1.7-13.8,1.1c-2.7,2.1-3.8,6.3-1.4,9.1c2.4,2.8,7,3.8,10.4,4.6c5.5,1.3,12.4,2.4,16.6,6.4c4.9,4.3,4.9,12.4,2.2,17.8
	c-3.2,6.3-10.2,8.9-16.9,9.4c-6.6,0.4-13.7-0.9-18-6.4c-2.6-3.2-2.8-6.9-3.3-10.8c2.8-0.3,5.6-0.5,8.5-0.8c1.1,2.9,2.1,6.8,5,8.4
	c4,2.2,9.6,2.1,13.7,0c4.5-2.3,5.2-9.6,0.7-12.3c-7.1-4.3-18.7-3.4-25.4-9.6c-6.1-6-4.4-16.8,2.2-21.7
	C467.9,93.4,480.5,93,488.1,98.9z"/>
<path class="st0" d="M530.5,95.1c7.1-0.6,14.4,1.1,21.5,1.3c3.9,0.5,8.8,0,12.3,1.6c0.1,2.4-0.2,4.9-0.3,7.3
	c-8.4-0.4-16.7-1.4-25-1.7c-0.5,5.1-0.9,10.1-1,15.2c6.2,0.6,12.4,1.1,18.6,1.6c-0.2,2.6-0.4,5.2-0.7,7.7c-6.3-0.4-12.5-1-18.8-1.2
	c-0.8,7.5-1.3,15.1-2,22.6c-3-0.1-6-0.3-9-0.5c0.8-14.1,2.3-28.1,3.3-42.1C529.8,103,529.9,99,530.5,95.1z"/>
<path class="st0" d="M578.4,100.1c2.5-0.1,5.1,0.4,7.6,0.9c8.7,1.9,17.4,3.5,26.1,5.4c-0.4,2.6-0.8,5.2-1.2,7.8
	c-8.5-0.9-16.6-3.3-25-4.6c-1.1,4.5-2,9-2.8,13.6c6.1,1.3,12.2,2.5,18.3,3.9c-0.5,2.4-1,4.8-1.5,7.3c-6.2-0.9-12.3-2.5-18.5-3.3
	c-1.1,5.3-2.2,10.6-2.9,15.9c8.2,1.7,16.5,3.2,24.6,5.1c-0.5,2.6-1.1,5.2-1.7,7.8c-11.2-2.2-22.5-4.4-33.6-6.8
	c2.4-13.7,5.5-27.4,8.1-41.1C576.7,108,577.3,104,578.4,100.1z"/>
<path class="st0" d="M439.8,100.7c0.6,2.4,1.1,5,1.7,7.4c-8.1,2.3-16.5,3.6-24.6,5.8c0.8,4.5,1.8,9,3,13.4
	c6.1-1.2,12.1-2.6,18.2-3.9c0.6,2.5,1.2,4.9,1.8,7.4c-6,1.4-12.1,2.7-18.2,4.2c0.9,5.4,2.1,10.6,3.5,15.9c8.3-1.5,16.4-3.9,24.7-5.2
	c0.6,2.5,1.2,5,1.8,7.4c-11,3.2-22.5,5.2-33.7,7.8c-4.1-17.7-8-35.4-11.9-53.2c5.4-1.3,10.7-2.5,16.1-3.7
	C428,103,433.9,101.4,439.8,100.7z"/>
<path class="st0" d="M628,110.7c5.4,1.6,10.7,3.6,16,5.3c5,1.7,9.8,3.5,13.4,7.6c3.7,4.2,5,9.9,3.7,15.3c-1.3,5.1-3.4,10.1-5,15.1
	c-1.6,4.9-3.2,9.3-7.4,12.6c-5.4,4.2-12.4,4.2-18.7,2.3c-6.7-2.2-13.3-4.6-19.9-7c4.7-13.9,9.6-27.8,14.3-41.7
	C625.5,117.1,626.5,113.8,628,110.7z"/>
<path class="st0" d="M392.1,111.8c1.2,2.5,2.1,5,2.9,7.6c-4.9,1.6-9.8,3.4-14.7,5.1c4.8,14.7,10.4,29.1,15.4,43.7
	c-2.8,1.1-5.7,2.1-8.6,3.1c-5.4-14.4-10.4-28.9-15.5-43.3c-5.2,1.4-10.1,3.4-15.2,5c-0.8-2.5-1.6-5.1-2.4-7.7
	C366.6,120.8,379.3,116,392.1,111.8z"/>
<path class="st2" d="M634,121.6c4.4,1,8.9,2.5,12.9,4.5c3.9,2.1,6.2,6.3,5.1,10.8c-1.3,5.4-3.5,10.6-5.2,16
	c-1.4,4.1-3.5,7.8-8.1,8.7c-5.6,0.9-12-2.5-17.2-4.4c3-9.2,6.3-18.2,9.3-27.4C631.7,127.1,632.7,124.2,634,121.6z"/>
<path class="st0" d="M681,130.5c10.4,4.6,20.5,10.1,30.8,15c-1.1,2.5-2.4,5-3.6,7.5c-7.6-3.6-15-7.5-22.5-11.2
	c-2.3,4-4.4,8.1-6.3,12.3c5.5,3.1,11.2,5.6,16.7,8.7c-1.1,2.2-2.3,4.3-3.4,6.5c-5.7-2.5-11.2-5.4-16.7-8.1
	c-2.6,4.8-5.1,9.6-7.2,14.6c7.4,3.9,15,7.4,22.4,11.3c-1.1,2.4-2.2,4.8-3.4,7.1c-10.5-4.7-20.8-9.9-31-15.3
	c4.4-9.6,9.4-18.8,13.9-28.4C674.2,144,677.3,137.1,681,130.5z"/>
<path class="st0" d="M332.1,135.7c4.6,3.7,8.6,8.3,12.9,12.3c9.3,9.4,18.8,18.6,27.9,28.1c-2.6,1.3-5.6,3.6-8.6,3.7
	c-3.5-2.9-6.5-6.5-9.6-9.8c-5.7,2.4-11.1,5.2-16.5,8.1c0.6,4.6,1.7,9.1,2,13.7c-1.8,2.3-5.4,3.2-8,4.4c-2.8-18.9-5.5-37.9-8-56.8
	C326.8,138.2,329.4,136.8,332.1,135.7z"/>
<path class="st2" d="M333.3,148.4c5.3,5.1,10.4,10.5,15.4,15.9c-3.8,2.2-7.7,4.2-11.8,5.9C335.6,162.9,334.4,155.6,333.3,148.4z"/>
<path class="st0" d="M303.9,150.2c1.6,2.2,2.9,4.4,4.4,6.7c-4.3,3-8.8,5.7-13.1,8.8c8.3,12.9,16.8,25.8,25.1,38.7
	c-2.4,1.8-4.9,3.5-7.4,5.1c-9-12.5-16.8-26-25.7-38.7c-4.4,2.8-8.8,5.7-13.2,8.5c-1.5-2.3-2.9-4.6-4.2-6.9
	C281,164.9,292.3,157.3,303.9,150.2z"/>
<path class="st0" d="M725.3,154c3.3,1,6.3,3.6,9.3,5.4c4.6,3.3,10,6.1,13.8,10.2c3,3.2,4.7,7.7,3.3,12c-1.2,3.7-3.8,7.7-6.7,10.3
	c-2.8,2.4-6.1,1.8-9.5,1.6c1.2,2.6,2.8,5.2,2.3,8.2c-0.5,3.3-3.1,6.4-4.8,9.2c-2.5,3.5-1.1,7.7-3.8,11.2c-3.1-2.2-8.3-4.7-7.5-9.2
	c1.1-5.4,6.5-9.7,7.8-15.1c0.4-2.5-1.1-4.1-2.8-5.6c-3.4-2.8-7.3-5.1-10.9-7.5c-4.6,6.2-8.5,12.8-13,19c-2.5-1.6-5.1-3.3-7.6-5
	c8.7-13.5,17.8-26.7,26.6-40.1C722.8,157.1,724,155.4,725.3,154z"/>
<path class="st2" d="M728.8,165.2c4.3,2.8,9.3,5.4,12.8,9.1c2.1,2.5,1,5.3-0.6,7.8c-1.8,2.8-4.2,6-8,5.2c-4.9-1.5-9.3-5.4-13.5-8.2
	C722.5,174.3,725.4,169.6,728.8,165.2z"/>
<path class="st0" d="M262.7,185.3c4.1,0.8,6.5,3.5,9.1,6.5c-2.1,1.8-4.3,3.6-6.5,5.4c-2.8-1.8-5.8-4.3-9.3-3.6
	c-4.7,0.9-9.5,4.9-10.7,9.6c-0.8,4.1,2.3,8.1,6.6,7.8c8.1-0.8,16.1-7.2,25-6.8c6.8,0,11.9,6.6,12.9,12.8c1.2,7.2-3.1,14-8.7,18.1
	c-5.2,4-11.8,6.9-18.4,4.9c-3.9-1.2-6.2-4-8.8-6.9c2.2-1.9,4.4-3.7,6.7-5.5c2.1,1.5,4.7,3.8,7.4,4c4,0.4,7.9-2.2,10.6-5
	c2.2-2.3,3.5-5.4,2.3-8.5c-1-3-3.8-5-7-4.7c-7.9,0.7-15.4,6.7-24,6.8c-5.7,0.1-10.2-3.9-12.3-8.9c-2.3-5.7-0.7-12,3-16.7
	C245.9,188.1,254.1,183.4,262.7,185.3z"/>
<path class="st0" d="M781.2,194.8c2.4,1.5,4.9,3.2,6.5,5.5c0.4,1.5-0.8,3.5-1.3,5c-7,16-13.3,32.3-20.4,48.2c-2.4-1.9-4.7-3.9-7-5.8
	c1.7-4.6,3.7-9,5.7-13.5c-4.5-4.1-9-8.2-13.7-12.1c-4,2.4-8.1,4.9-12.1,7.4c-2.4-1.9-4.7-3.9-7-5.9c4.8-3.3,9.9-6,14.9-9
	C758.2,208.2,769.6,201.2,781.2,194.8z"/>
<path class="st2" d="M776.3,207c-2.4,6.7-5.5,13.2-8.4,19.6c-3.5-2.7-6.8-5.5-10-8.6C763.9,214.2,769.9,210.2,776.3,207z"/>
<path class="st0" d="M509.5,209.6c8.8,2.9,16.6,9.5,23.9,15.2c6.9,5.7,13.1,12.2,19.7,18.2c8.1,6.9,15.9,13.1,22.1,21.8
	c2.5,3.5,4.2,7.5,5,11.8c0.7,4.2,1.1,8.2,3.2,12c4.2,8.2,10.3,15.9,15.8,23.3c1.3,1.6,2.6,3.6,4.3,4.7c2.6,0.5,5.5,0.3,7.9,1.2
	c3,1.1,5.5,2.8,8.8,2.9c10,0.7,20.7-3.8,29.5-8.2c4-1.9,7.5-4.4,11.1-6.9c3.4-2.3,7.3-3.7,11.4-2.8c5.4,1.1,7.7,5.9,13.1,7
	c3.9,0.9,7.2,1.7,10,4.8c-3.8-0.1-7.3-0.5-11.1,0c-5.8,0.8-11.3,3-17.1,4c-8.6,1.2-15.9,5.6-24.1,9.1c-7,3.3-13.5,4.8-19.7,9.2
	c-6.3,4.5-11.1,10.9-17.5,15.5c-7.6,5.4-15.6,9.9-24.6,12.6c-2.3,0.7-4.5-0.1-6.9-0.3c-4.8-0.7-9.3,1.2-14,0.3c-2-0.2-3.8-0.7-5.8,0
	c-4.1,1.5-8.2,2.7-12.5,3.6c-2.9,0.7-5.1-1.8-8.1-1c-5.8,1.4-11.3,3.2-17.4,2.6c-0.2-1.3-0.3-2.5-0.5-3.8c-1.6-0.2-3.3-0.4-4.9-0.6
	c3.8-5.3,9.3-6.1,14.5-9.4c2.9-1.8,6.1-2.4,9.1-3.9c2.3-1.6,4-4.1,6-6c4.6-4.8,10.6-7.3,15.2-12c-4.2-2.4-8.3-4.8-11.8-8.2
	C536.4,319,531,309,526,300c-3.7-5.3-11.1-7.5-15.7-12.2c-3.8-3.3-4-7.5-6.3-11.7c-1.5-3.4-3.9-6.8-4.5-10.5
	c-0.3-1.9-0.4-3.9-0.5-5.8c9,1.2,15.3,6.2,23.4,9.8c2.9,1.3,5.6,3.1,8.2,4.8c1.5,1.2,3,0.9,4.8,1c-4.8-4.6-9.1-9.6-12.6-15.2
	c-1.5-2.4-4-3.4-5.4-5.9c-1-1.8-2.8-3.7-3-5.8c-0.1-3-3.1-5.4-4.6-7.9c1-0.7,2-1.4,3-2.1c-3.7-2.2-6.8-4.3-8.5-8.5
	c1.3-0.8,2.6-1.5,4-2.3c-1.5-1.7-3-3.3-4.5-4.9c-0.2-0.8-0.4-1.6-0.6-2.4c1.2-0.2,2.5-0.3,3.7-0.5c-1.5-2.3-2.9-4.6-4.2-7
	c2.3,0.3,4.6,0.7,6.8,1.1C509.5,212.5,509.5,211.1,509.5,209.6z"/>
<path class="st0" d="M803.8,214.9c9.3,9.9,18.4,20,27.4,30.2c-2,1.8-4,3.6-6.1,5.3c-3.5-3.8-7-7.6-10.5-11.5
	c-11.8,10-22.8,20.9-34.5,31c-2.1-2.2-4.1-4.5-6.1-6.7c11.2-10.6,22.9-20.7,34.1-31.3c-3.4-4-7-7.8-10.4-11.8
	C799.8,218.3,801.7,216.5,803.8,214.9z"/>
<path class="st1" d="M494.1,223.4c3.2-0.4,6.5-0.5,9.7-0.6c1.5,1.6,3,3.3,4.5,4.9c-1.3,0.8-2.6,1.5-4,2.3c1.7,4.2,4.8,6.2,8.5,8.5
	c-1,0.7-2,1.4-3,2.1c1.5,2.5,4.5,4.9,4.6,7.9c0.2,2.1,2,4,3,5.8c1.4,2.5,3.9,3.5,5.4,5.9c3.5,5.6,7.8,10.7,12.6,15.2
	c-1.8-0.1-3.3,0.3-4.8-1c-2.7-1.8-5.3-3.5-8.2-4.8c-8.1-3.6-14.4-8.6-23.4-9.8c0.1,1.9,0.2,3.9,0.5,5.8c0.5,3.6,2.9,7.1,4.5,10.5
	c2.3,4.2,2.5,8.3,6.3,11.7c4.6,4.7,12,6.9,15.7,12.2c5,9,10.4,19,17.9,26.1c3.5,3.4,7.5,5.8,11.8,8.2c-4.6,4.7-10.7,7.2-15.2,12
	c-2,1.9-3.8,4.4-6,6c-3,1.5-6.2,2.1-9.1,3.9c-5.2,3.3-10.7,4.1-14.5,9.4c1.6,0.2,3.3,0.5,4.9,0.6c0.1,1.3,0.3,2.5,0.5,3.8
	c6.1,0.6,11.5-1.2,17.4-2.6c3-0.8,5.2,1.7,8.1,1c4.3-0.9,8.4-2,12.5-3.6c2-0.8,3.8-0.2,5.8,0c4.7,0.9,9.2-1.1,14-0.3
	c2.4,0.3,4.6,1,6.9,0.3c9-2.7,17-7.2,24.6-12.6c6.4-4.6,11.2-11,17.5-15.5c6.2-4.4,12.7-5.9,19.7-9.2c8.2-3.4,15.6-7.9,24.1-9.1
	c5.8-0.9,11.3-3.1,17.1-4c3.8-0.6,7.3-0.1,11.1,0c-2.8-3.1-6.1-3.9-10-4.8c-5.4-1.1-7.7-6-13.1-7c-4.2-1-8,0.4-11.4,2.8
	c-3.6,2.5-7.1,5.1-11.1,6.9c-8.8,4.4-19.5,8.9-29.5,8.2c-3.3-0.1-5.8-1.8-8.8-2.9c-2.4-0.9-5.3-0.8-7.9-1.2c-1.8-1.1-3-3.1-4.3-4.7
	c-5.5-7.5-11.5-15.1-15.8-23.3c-2-3.8-2.5-7.8-3.2-12c-0.7-4.3-2.5-8.3-5-11.8c-6.3-8.8-14-15-22.1-21.8
	c-6.6-6.1-12.8-12.5-19.7-18.2c5.3-1.2,10.4-0.4,15.8,0c2.6,2.1,4.8,4.7,7.5,6.7c3.1,1.1,6.5,1.4,9.8,2.1
	c33.8,6.5,66.3,19.4,95.5,37.7c40.9,25.5,75.1,61.5,98.4,103.6c19.7,35.5,31.6,75.2,34.6,115.7c2.8,36.3-1.7,72.8-12.6,107.5
	c-6.4,0.7-12.7-0.4-19.1-0.2c-8.4,0.2-16.6-0.5-25,0.1c-5,0.4-10,0.4-15,0c-7.7-0.5-15.3,0-23-0.2c-3.9-0.1-7.7,0.1-11.5,0.5
	c-0.2,1.1-0.5,2.2-0.7,3.4c-1.1-1.6-2.2-3.7-4-4.6c-2.3-1.1-5.2-1.3-7.7-1.6c2.7-5,7.5-4.7,11.6-7.7c2.2-1.8,1.4-4.9,1.5-7.4
	c-2.1-0.4-4.2-0.8-6.4-1.3c0.7-2.6,1.8-5.3,2.1-8c-0.5-1.1-1-2.1-1.7-3.1c-4.4,2.5-8.2,5.2-13.4,5.9c-1.3-2.3-2.5-5.4-4.6-7.1
	c-2-1.6-5-1.8-7-3.3c-1.2-2.1-2.8-5.3-1.5-7.7c1.7-2.3,5.5-2.7,7.5-4.6c2.5-3.3,3.3-7.9,5.8-11.2c2.2-3,6.3-2.3,8-5.9
	c-0.5-2.2-2.6-3.7-4.9-3.6c-3.1,0.4-6,1.9-9.1,2.3c-1.8,0.3-3.3-1-4.8-1.8c-2.6-1.5-5.1-1.7-7.2-3.7c-2.1-1.9-4.2-3.8-6.7-5.1
	c2.2-2.2,3.8-4.9,5.6-7.4c2.7-1.4,6.2-0.9,9-1.9c2.1-1,2.7-4.3,5.3-4.7c2.9-0.8,5.6-2,6.4-5.2c-0.6-3.8-0.7-7.5-1-11.2
	c-2.6,2.6-5.3,4.6-8.6,6.3c-4.3,2.3-6.5,5.8-11,7.1c-2.4,0.9-4.9-1-7-1.9c4.1-5.8,10.2-5.9,15.4-9.8c3.1-2.5,1.8-5.7,1.3-9
	c2.9-2.1,4.7-4.1,6.4-7.3c-1.3-1.2-2.6-2.6-4.1-3.5c-3-0.8-5.8,2.8-5.6,5.5c-0.2,1.4,0.2,3.3-0.6,4.5c-1.9,1.6-5.4,0.8-7.7,1
	c-1.8,2.5-3.1,5.3-5.2,7.6c-3.3,1.8-5-2-7.3-3.7c-3-2.1-6.2-3.4-8.6-6.4c3.4-2.7,7.6-7.4,12.1-7.7c2.4,0.9,4.5,3.4,7.1,3.3
	c1.8-1.5,3.1-3.7,4.4-5.5c-2.8-2.8-6.1-4.7-9.5-6.7c0.2-7.8,7.1-10.8,8-18.1c-2.5-0.7-4.9-1.4-7.6-1c-2,1.5-3.6,3.6-5.3,5.3
	c-5.7-1.9-10.5,0.2-16.2,0.3c0-1.8-0.2-3.9,0.5-5.5c2.1-2,5.4-2.8,7.8-4.3c1.4-0.9,2.2-2.8,3.1-4.1c-2.3-0.6-4.6-1.2-6.9-1.8
	c1.4-1.3,3-2.4,4.6-3.5c-0.8-3.1-2.1-6.4-2.2-9.7c0.6-2.5,2.2-4.8,3.3-7.2c-1.8-0.5-3-1.6-4.9-0.8c-3.7,1.1-6.3,3.6-9.1,6
	c0.1-3,0.9-6.4,0.1-9.3c-1-2.5-4.8-2.7-7-3.6c4-2.8,7.8-1.3,10.7-5.2c1.6-1.8,0.2-4.8-2-5.4c-3,0.4-5.2,2.9-8,1.6
	c-2.3-0.8-6.1-1.6-6.7-4.4c-0.5-4.5,3.4-9.2,3-13.6c-0.7-1.9-2-3.6-2.6-5.5c-0.5-2.2-0.6-4.3-1.7-6.4c-1.8,0.9-2.8,2.3-4,3.9
	c-1.4,2-3.4,3.3-4.9,5.2c-0.2,3.6-0.2,6.8-1.6,10.3c-1,4.7,0.4,11.8-2.7,16.4c-1.6,2.6-1.8,5.7-2.4,8.7c-0.9,3.2,1.1,5.6,1.8,9.1
	c-1.7-0.1-3.4-0.1-5-0.4c-4-0.7-4.9-6.1-9.4-6c-2.8-0.3-4.5,3.9-2.2,5.6c2,2.3,4.2,2.6,7,2.9c2.2,0.1,3.1,2.3,4.4,3.8
	c-3.4,3.1-7.3,5.1-11.1,7.7c-2.5-1.4-5-2.8-7.8-3.5c-1.3,3.6-1.5,7.5-0.2,11.2c2.4,2.8,6.9,4.9,8.5,8.4c1,2-1.5,4.6-2.3,6.4
	c1,1.3,2,2.5,3,3.9c-3.6-0.5-6.1-3-9.5-4.1c-1.9-0.6-3.2,2.2-3.5,3.6c0.1,2.1,1.1,4.2,1.6,6.3c-3.4-2.3-6.1-7.5-10.1-8.4
	c-3.4-0.6-4.6,2.9-4.4,5.6c0,2.5,2.9,4.2,4.5,5.7c-1.3,1.9-2.6,3.8-3.9,5.7c0.9,1.3,1.8,2.9,3.1,3.8c5.1,3.2,13.1,1.2,17.8,5
	c2.4,1.5,1.7,5.3,2.1,7.8c-3-1.2-5.7-2.1-9-1.8c-3.8,0.3-6.7-0.5-10.1-2.1c-1.3,1.5-3.1,2.5-2.7,4.8c0.7,2.8,2.5,5.4,3.2,8.2
	c-0.3,1.9-3,2.9-4.5,3.9c-1.5-3.6-3.3-6-6.1-8.7c-2.2,2.3-6.3,5.3-6.1,8.8c-0.1,2.8,4.6,3.6,6.4,4.9c2.6,1,2.6,4.4,3.5,6.7
	c3.4,1.2,6.9,1.6,10.4,2.5c2.2,0.5,3,2.6,4.1,4.3c-3.3,2.2-6.6,3.5-7.9,7.6c1.5,1.7,3.8,2.8,5.7,4c-1.2,2.3-2.6,4.6-4,6.8
	c-5-0.2-10.9-0.1-15.6-2.1c-3.2-1.3-5.2-3.6-7.7-5.8c-1.5,2.1-2.9,3.8-1.9,6.5c1.4,3.6,1.2,7.3,2,10.9c3.4,4.7,7.9,8.7,13.6,10.2
	c0.6,2.9,1.6,7.2,4.3,8.9c4.1,1.1,8.4-2.1,12-1.9c1.2,0.6,2.3,1.4,3.4,2.1c-3.5,2.9-8.8,4.4-11.6,8c-0.6,3.2,0.4,6.4-0.3,9.6
	c-2.4-1.4-4.4-3-6-5.4c-1.6-2-3.6-5.4-6.4-5.6c-2.1-0.4-3.2,1.3-4.8,2.4c-0.9-0.2-1.8-0.3-2.8-0.5c-2,0.6-3.9,1.7-6,1.6
	c-4.1-0.1-8.2-0.5-12.3-0.4c-7.8,0.2-15.3-0.6-23,0.7c-3.4,0.7-5.6-1.3-8.5-2.7c0-0.9,0-1.8,0-2.6c-2.8,0.5-5.5,1.7-8.3,2
	c-2.2-0.4-4.4-1.6-6.6-1.3c-2.3,2.7-3.6,6-6.4,8.5c-0.6-0.7-1.2-1.5-1.8-2.2c0.4-2.6,1.9-5.6-0.2-7.8c-3.2-3.1-8-4.3-11.6-7.1
	c1.2-0.7,2.3-1.5,3.5-2.1c3.7-0.2,8.1,2.5,11.8,1.5c2.9-1.7,3.8-6.4,4.5-9.4c5.4-0.8,10.7-2.7,13.8-7.5c1.1-6-1.4-12.5-0.1-18.3
	c0.3-1.9,0.9-3.9,0.7-5.8c-0.2-1.6-1.4-2.8-2.3-4c-3.2,3.7-5.9,7.5-9.8,10.4c-3.7,3-8,5-12.6,6.4c-1.5-2.2-3.2-4.4-4.1-6.9
	c1.7-1.6,3.7-2.8,5.6-4.1c-2-3.7-4.9-5.5-8.5-7.5c0.8-1.3,1.6-2.8,2.7-3.8c3.3-1.9,7.9-1.7,11.3-3.7c1.4-2.5,1-5.9,3.9-7.1
	c2.7-1.8,6.2-1.9,5.8-6c-1.5-1.8-3.8-3-5.7-4.2c-2.8,1.6-5.1,3.3-7.3,5.7c-1.1-0.9-2.7-1.6-3.5-2.9c-0.5-3.2,2.3-6.4,2.6-9.6
	c0.1-1.9-1.5-2.9-3-3.8c-3,0.8-5.5,2.4-8.8,2.2c-3.8-0.2-6.9,0.8-10.3,2.1c0.3-2.4,0-6.1,1.9-7.9c3.1-3.4,9.4-3.1,12.7-6.3
	c2-2.2,2.2-5.9,3.5-8.5c1.6-2.1,5.1-3.8,4.7-6.8c-0.2-2.5-1.3-5.6-4.4-4.9c-4.1,0.8-6.7,6.4-10,8.8c0.4-2,1.1-3.9,1.5-6
	c-0.4-2-1.8-4.4-4.3-3.6c-2.9,1.3-5.4,3.4-8.3,4.8c0.5-1.6,1.5-3.2,1.8-4.9c-0.7-1.7-1.7-3.3-2.3-5.1c1.6-3.4,4.2-5.3,6.9-7.7
	c2.2-1.6,2.2-3.8,2.4-6.3c0-2,0.1-6-2.7-6.2c-2.2,0.9-4,2.3-6.2,3.2c-3.2-0.9-6.3-3.1-9-4.8c-2.7-2.9-5.6-6-7.9-9.2
	c0.5-1.7,1.3-3.3,1.8-5.1c-0.6-4.5-1.3-8.9-4-12.7c-1.8-4.1-1.5-9.5-2.1-13.9c-1.3-4.7-3.2-8.8-6.7-12.2c-2-3.5-1.7-9.1-1.7-13
	c0-2.1-1.8-2.7-3.2-3.8c-1.3,4.6-0.6,9.1-0.6,13.8c0,2.8-2.4,5.3-2.9,8c0.3,4.4,3.7,8.5,3.8,12.9c-0.7,3.4-4.7,3.7-7.2,5.1
	c-1.7,0.7-3.2,2.9-1.7,4.5c2,1.9,5.1,2.6,7.3,4.4c-3,1.1-6.2,1.3-9.4,1.5c-2.7,4-1.5,7.5-0.8,11.8c-2.6-2.1-5.1-4.1-8.4-5
	c-1.1,2.3-2.4,4.1-2.4,6.8c0,3.5-1.1,6.7-1.6,10.1c1.3,1.3,3,2.3,4.5,3.6c-2.2,0.7-4.5,1.4-6.7,2.2c0.9,1.2,1.8,2.6,2.9,3.7
	c2.3,1.4,5.3,2,7.5,3.5c2,1.3,1.3,4.4,1.4,6.4c-3.4-0.2-6.9-0.8-10.3-0.9c-2,0-4,0.9-6,0.7c-1.9-1.4-3.5-3.2-5.1-4.9
	c-2.3,0.3-4.6,0.4-6.7,1.2c-1.9,1.8-0.1,3.5,0.8,5.3c3,4.2,6.3,7.3,6.9,12.7c-3.4,2.1-6.7,4.2-9.3,7.3c1.4,1.6,2.6,4,4.5,4.9
	c3.1,0.9,5.5-4.2,8.6-3.2c3.9,1.1,7.4,4.5,10.7,6.8c-2.4,4.1-6.9,5-9.8,8.5c-1.6,1.7-2.9,3.4-5.5,2.8c-3.2-1.4-5.1-5.5-8.4-6.8
	c-2.3-0.2-4.7-0.1-7.1-0.2c0.9-2.2,1.8-4.5,2.7-6.7c-1.7-1.5-3.5-3.8-5.6-4.5c-2.2,0-4,1.9-5,3.7c0.2,3.1,3.7,5.3,5.8,7.1
	c0,2.9-1.1,6.4,1.4,8.6c5.4,4.4,12.4,3.3,16.3,10.1c-2.4,0.6-4.7,1.3-7.2,0.7c-4.6-1.5-7.8-4.4-11.3-7.7c-3.1-2.7-6-5.7-8.8-8.6
	c-0.7,3.7-0.6,7.7-0.7,11.5c1.4,3.9,4.9,4.3,8.5,5c1,2,1.9,4.1,3.6,5.5c2.6,2.1,6.4,3,9.2,4.7c2,2.4,3.6,5.2,6,7.3
	c-3.3,1.9-5.4,5.1-8.5,7.1c-3.2,1-5.7,2.8-8.7,4.4c-3.5,0.2-7.1-1.7-10.7-1.9c-1.9,0.3-3.5,2.1-4.9,3.2c2.1,3.3,5.3,3.6,8.2,5.6
	c3.1,3.3,3.9,8.6,7,11.9c2,1.4,4.8,1.8,6.8,3.3c2.5,2.9,0,6.1-0.9,9.1c-2.5,0.7-5.2,1.2-7.2,3.1c-1.8,1.8-2.7,4.5-3.8,6.8
	c-5.4,0.2-9.1-2.6-13.6-5c-0.6,1-1.2,2-1.6,3.1c0.4,2.8,1.5,5.5,2,8.3c-2,0.4-3.9,0.7-5.9,1.1c0,3.6-0.7,6.3,2.9,8.4
	c0.1,1.6,0.3,3.1,0.5,4.7c1.3,0.1,2.7,0.2,4,0.3c-1.1,1.2-1.9,3.2-3.7,3.1c-4-0.1-8-1.4-12-1.9c-7.1-1.1-13.7,0.5-21,0.1
	c-7.4-0.4-14.6-0.8-22-0.2c-4.7,0.4-9.3,0.3-14,0c-3.9-0.3-7.8,0.6-11.6,0.2c-2.6-0.7-5-2.1-7.6-3c-4.7-15.8-8.4-31.9-10.3-48.3
	c-6.1-48.4,0.6-98.6,19.5-143.6c9.6,0.1,18.7-3.3,26.4-8.9c5.3-3.8,7.4-9.7,12.6-13.4c4.8-3.4,11.1-4.8,16.4-7.7
	c7.5-4.5,16.7-6.6,25.3-7.7c-2.1-2-4.4-1.7-7-2.4c-2.3-0.9-4.4-2.8-6.8-3.5c-2.4-0.1-4.8,0.5-7,1.4c-3.8,1.6-5,5.5-9,6.9
	c-8,3-17.1,4.5-25.6,3.3c-3.3-0.5-4.7-2.9-6.7-5.2c26.9-44.7,66.2-81.7,112.5-105.8c34.5-18,73.1-29,112-31.3
	C493.5,227.1,493.8,225.2,494.1,223.4z"/>
<path class="st0" d="M217.2,241.8c4.6,3.3,8.9,7.1,13.4,10.6c4.2,3.3,7.6,7.1,8.4,12.6c1,6.3-1.6,11.8-5.3,16.6
	c-4.2,5.2-8.4,10.5-12.7,15.6c-6.1-4.5-11.9-9.6-17.9-14.3c-8.2-6.6-16.4-13.2-24.4-20c3.3-4.5,6.9-8.7,10.4-13.1
	c2.7-3.4,5.3-6.6,9.1-8.9C203.9,237.6,211.6,237.8,217.2,241.8z"/>
<path class="st2" d="M214,250.9c4.4,3.6,9,7,13.1,10.9c2.9,2.8,4.1,6.9,2.3,10.7c-2.1,4.6-6.1,8.6-9.3,12.5
	c-9.8-8-19.7-15.9-29.4-24c3.4-4.2,6.8-10,11.8-12.5C206.8,246.5,210.6,248.3,214,250.9z"/>
<path class="st0" d="M839.1,255.8c2.1,2.2,3.8,4.6,5.5,7.1c-14.4,11.1-29,21.9-43.6,32.9c-1.9-2.4-3.7-4.9-5.4-7.5
	c10.8-8.1,21.5-16.2,32.3-24.3C831.7,261.2,835.3,258.3,839.1,255.8z"/>
<path class="st0" d="M440,270.6c3.1-0.1,5,2.5,7.1,4.3c2.8,2.7,6.2,3.8,9.4,5.9c-8.2-1-16.1,0-24.3,0.6c-3.8,0.6-7.4,2.7-11.2,3.6
	c-4.1,1.2-8,1.4-11,5c-2.8,3-2,7-1.5,10.7c0.6,3.5,4,6.1,5.3,9.4c1.1,3.1,1.7,6.3,2.7,9.4c2.4,7.2,5.2,14.2,7.4,21.5
	c1.2,4,1.1,8,0.7,12c-5.2-1.4-9.6-4.2-14.1-7c-4.7-4.6-8.3-10-13-14.6c-5-6.4-9.7-13.5-13.2-20.8c-6.8,3.1-14.1,4-21.5,2.6
	c-2.4,2.2-5.1,4.9-8.2,6.1c-3.5,0.1-6.3-1.8-9.9-0.7c-2.9,0.9-5.3,0-8.1-1c2-3.7,4.5-7,8.6-8.5c3.3-1.5,7.8-2,9.7-5.3
	c1.7-1.8-1.7-4.2,0.4-5.8c2.4-2.6,5.4-4.8,8.6-6.4c5.3-2.6,11-3.2,16.3-5.7c4.4-2,8.3-4.7,13.2-5.6c4.5-0.9,9,1,13.7,0.6
	c6.3-0.6,12.5-2.5,18.4-4.6C430.2,274.6,434.9,270.6,440,270.6z"/>
<path class="st0" d="M169.4,276.2c2.5,0.8,4.8,2.5,6.9,3.8c-4,7.4-8.8,14.4-13,21.7c3.9,2.5,7.8,4.9,11.8,7.2
	c3.4-5.2,6.6-10.7,10-15.9c2.1,1.3,4.2,2.6,6.4,4c-3,5.5-6.4,10.6-9.6,16c4.5,3,9.1,5.9,14,8.5c4.5-7.1,8.7-14.3,13.3-21.4
	c2.3,1.4,4.6,2.8,6.8,4.1c-5.7,10-11.9,19.7-18,29.5c-9.7-5.8-19.3-11.8-29-17.7c-5.8-3.6-11.8-7-17.4-10.9
	C157.4,295.5,163.1,285.6,169.4,276.2z"/>
<path class="st0" d="M857.2,283.8c5.5,2.6,9.4,7.9,11.6,13.3c2.3,5.7,2.1,12.2-1.2,17.4c-3.3,5.5-9.4,8.1-14.6,11.5
	c-3.3,2-6.6,4.2-10.1,5.9c-6.2,2.8-13.6,2.5-19.1-1.7c-7-5.2-11.9-15.3-9.6-24c1.4-5.7,5.4-9.7,10.4-12.7c5-3,9.9-6.2,15-9
	C844.9,281.7,851.7,281.1,857.2,283.8z"/>
<path class="st2" d="M848.3,291.3c9.2-2,17.4,11.1,11.5,18.5c-2.9,3.6-7.9,5.8-11.7,8.3c-3.9,2.2-8,5.5-12.5,6.4
	c-8.9,1.8-16.8-10.4-12-17.9c2.3-3.7,7.2-5.9,10.8-8.2C838.9,296.1,843.4,292.4,848.3,291.3z"/>
<path class="st0" d="M145,317.9c2.4,0.7,4.7,1.9,7,2.9c-2.2,4.8-4.3,9.5-6.4,14.3c13.8,6.9,28.2,12.6,42,19.6
	c-1.2,2.7-2.5,5.4-3.7,8.1c-14.3-6-28.1-13.1-42.5-19c-2.1,4.8-4.2,9.5-6.5,14.1c-2.4-1.1-4.8-2.2-7.2-3.3
	c4.1-10.3,9.3-20.2,13.6-30.4C142.4,322.3,143.2,319.5,145,317.9z"/>
<path class="st0" d="M884,327.1c1.1,2.1,2.3,4.4,2.7,6.8c-1.7,3.9-4.6,7.3-6.8,10.9c-5.6,8.8-11.5,17.3-17,26.1
	c11.4-4.4,22.5-9.9,34-14.1c1.1,2.7,2.2,5.3,3.3,8c-16.7,7.2-33.4,14.4-50.1,21.3c-0.9-2-1.9-4-2.4-6.1c1.9-4.6,5.2-8.6,7.7-12.9
	c5-8.2,10.4-16.1,15.2-24.4c-11.3,3.8-22,9.5-33.2,13.5c-1.1-2.7-2.2-5.3-3.2-8c13.6-6,27.3-11.6,40.9-17.5
	C877.9,329.5,880.8,328.2,884,327.1z"/>
<path class="st0" d="M453.7,345.2c7.3,3.4,14.2,8.6,20.7,13.4c5.4,3.9,10.4,8.3,15.1,12.9c2,2,3.8,4.7,4.1,7.6
	c0.5,3.6,0.6,6.9,2.1,10.2c1.9,4.5,4.7,8.5,7.8,12.2c2.3,2.9,6.1,2.7,9.5,2.7c5.4-0.3,11-1.1,16-3.2c3.2-1.3,4.6-4.8,7.9-5.9
	c2.7-1,5.3-1.4,7.8,0.3c2.8,1.8,6,2.2,9.1,3.2c-1.3,0.5-2.5,1-3.9,1.2c-5.7,1-11.8,2.5-16.8,5.5c-4.4,2.5-9.5,3.6-13.7,6.3
	c-4.7,3-6.7,8.3-11.3,11.7c-4,3-8.8,5.2-13.6,6.5c-5.9,1.5-11.4,0.4-17.3,0.9c-3.7,0.3-6.2,2.9-9.8,2.8c-2.2,0-4.3,0.5-6.4,0.7
	c-1.5-0.3-3.1-0.8-4.6-1.3c1.4-5.7,6.3-6.1,10.6-8.8c4.2-2.7,7.7-6.2,11.9-8.8c-2.5-2.1-5-3.6-6.7-6.5c-2.8-4.4-4-9.1-5.2-14
	c-0.6-2.9-2.7-4.2-4.6-6.1c-3.9-3.6-6.8-7.9-9.8-12.3c-1.1-1.7-1.4-3.8-1.9-5.8c3.6,0.9,7,2.5,10.6,3.5c-2.9-4.8-6.9-9.1-8.7-14.3
	c-1.8-5.2-4.2-9.3-2.9-15C451.2,344,452.3,344.7,453.7,345.2z"/>
<path class="st0" d="M123.3,367.8c2.4,0.3,4.7,1.1,7,1.9c14.8,5.3,29.7,10.3,44.6,15.6c-0.9,2.9-1.9,5.8-3,8.6
	c-17.2-5.9-34.4-11.9-51.5-18C121.2,373.2,122.1,370.4,123.3,367.8z"/>
<path class="st0" d="M114.9,392.6c17.7,4,35.3,8.3,52.9,12.5c-0.5,2-0.9,4.1-1.7,6.1c-2.6,2.2-6.5,3.1-9.6,4.4
	c-10.4,4.2-20.9,8.1-31.3,12.4c11.5,3.3,23.3,5.6,34.9,8.5c-0.5,2.9-1.2,5.8-1.9,8.6c-13.3-3-26.6-6.2-39.9-9.3
	c-4.4-1-8.9-2-13.2-3.4c0.6-2.3,1.1-4.9,2.2-7c5-2.6,10.6-4.1,15.8-6.2c8.3-3.3,16.9-5.9,25.1-9.5c-11.8-3.1-23.8-5.5-35.6-8.6
	C113.2,398.2,113.9,395.4,114.9,392.6z"/>
<path class="st0" d="M904.1,407c6.1,1.7,10.6,6.4,12.7,12.3c2.8,7.8,2.7,16.9-3.3,23.2c-5.1,5.3-11.7,5.9-18.5,7.4
	c-5.9,1.1-12.8,3.3-18.8,1.9c-5.9-1.2-10.6-5.5-13-10.9c-3.6-8.2-3.7-18.1,2.8-24.8c5.4-5.6,13-6.1,20.2-7.7
	C892.2,407.1,897.9,405.3,904.1,407z"/>
<path class="st2" d="M901,415.7c9.4,1.2,12.8,15.9,5,21.2c-4.2,2.7-10,3.1-14.8,4.2c-4.3,0.8-9.5,2.5-13.8,1.5
	c-7.4-1.8-10.3-12-6.7-18.1c3.2-4.9,9.3-5.4,14.5-6.5C890.2,417.2,895.8,415.2,901,415.7z"/>
<path class="st1" d="M606.3,439.4c1.3-0.2,2.6-0.3,3.9-0.4c-0.8,2-1.8,4-2.5,6.1c0,2.6,1.2,4.5,0.1,6.8c-2.2,4.9-4.1,9.4-9.7,11
	c-0.8-1.5-1.7-3-2.4-4.6c2.5-2.2,5.8-4.2,7.6-7C604.5,448,604,442.6,606.3,439.4z"/>
<path class="st0" d="M102.3,450.8c2.2-0.2,4.5-0.1,6.7,0.1c10.2,1,20.4,1.8,30.6,2.7c4.7,0.4,9.1,1.9,12.3,5.4
	c4,4.4,4.9,10.1,4.6,15.9c-0.3,6.8-2.9,13.8-9,17.4c-4.5,2.7-9.2,2.3-14.1,1.9c-11.4-1.1-22.8-2.2-34.3-3c0.1-3.1,0.2-6.2,0.4-9.3
	c10.4,0.6,20.8,1.7,31.1,2.6c4,0.3,9.1,1.3,12.8-0.5c3.3-1.6,4.7-5.2,5.2-8.6c0.4-3.4,0.1-7.2-2.4-9.8c-2.5-2.5-5.8-2.8-9.1-3.2
	c-11.8-0.9-23.5-2.1-35.3-3.1C101.8,456.7,101.9,453.7,102.3,450.8z"/>
<path class="st1" d="M429.2,455.9c3.1,0.7,3.8,0.9,4.9,3.9c-1.1-0.1-2.3-0.4-3.4-0.6C430,458.2,429.6,457.1,429.2,455.9z"/>
<path class="st1" d="M615,458.8c1.9,0.9,3.5,2.7,5.1,4.1c-1.3,1-2.7,2-4.1,3c-1.4-2.1-2.8-4.2-4-6.3
	C612.9,459.3,613.9,459,615,458.8z"/>
<path class="st0" d="M922.6,461.2c0.9,11.3,1.9,22.7,2.4,34c-2.7,0.2-5.4,0.3-8,0.3c-0.5-8.2-1-16.4-1.9-24.5
	c-5,0.1-10.1,0.5-15.1,1c0.1,6.3,0.7,12.6,0.9,19c-2.6,0.1-5.1,0.3-7.7,0.3c-0.5-6.2-0.8-12.4-1.3-18.6c-7.7,0.3-15.4,1.1-23.1,1.4
	c-0.2-3-0.5-6-0.7-9C886.3,463.9,904.4,462.3,922.6,461.2z"/>
<path class="st0" d="M331.9,462.3c3.6,1,7,2.6,10.6,3.5c-6.4,3.7-14.1,5.8-21.1,7.6c-5.3,1.3-10.5,3.7-14.8,7.1
	c-3.1,2.6-5.5,5.9-8.4,8.7c0.6,4.1-0.5,8.5,1.7,11.9c3.5,6.4,4.5,13.6,4.2,20.9c-0.3,4.8-1.8,9-3.2,13.6c-1.1-2.1-1.9-4.2-2.6-6.4
	c-0.3,2.3-0.6,4.5-1,6.8c-2.4-2.2-5.1-2.9-8.1-4.1c-0.8,0.5-1.7,1-2.5,1.5c-0.5-1.7-0.9-3.4-1.3-5.1c-0.7,1.1-1.5,2.1-2.3,3.2
	c-0.6-1.4-1.2-2.9-1.8-4.3c-0.9-0.3-2-0.5-2.8-1.1c-0.8-1.4-1-3.2-1.4-4.8c-1.3-0.5-2.6-0.7-3.5-1.9c-4.2-4.9-6.6-10.4-9.4-16
	c-3.8,0.1-7.5,0-11.2,0.2c-5.4,0.4-10.6,1.4-16,1.4c1.2-1.5,2.2-4.1,4.1-4.7c3.6-1.4,6.9-2.9,9.8-5.4c5.4-4.4,11.8-6.6,17.6-10.4
	c6.2-4,13-7,20.3-8.6c4.8-1,9.4-0.6,13.8-2.2c5.7-2,11.4-4,17.3-5.8C324.1,466.8,327.5,462,331.9,462.3z"/>
<path class="st1" d="M608.3,467c-0.2,4.9-4.2,7.4-8.5,8.6C601.1,471.8,605.2,469.2,608.3,467z"/>
<path class="st1" d="M620.2,469.5c1.5,0.5,3,1.1,4.5,1.7c-0.1,1-0.1,1.9-0.2,2.9C621.6,472.9,621,472.4,620.2,469.5z"/>
<path class="st1" d="M612,473.4c0.9,0.5,1.7,1,2.4,1.7c1,2.4-1.3,4-2.9,5.4c-1.9,1-4.8,0.5-6.9,0.6C606.8,478.5,609,475,612,473.4z"
	/>
<path class="st1" d="M613.7,500c2.3,0.6,4.9,1.8,7.2,1.3c3.1-0.5,6.1-1.4,9.1-2.1c1.4,1.9,3.2,3.9,3.8,6.3c-1.2,1.4-3.2,0.6-4.9,0.8
	c-3.5-0.1-6,3.1-7.8,5.7c-1.8-1.6-3.6-3.2-5.5-4.8c-1.3,1.5-2.6,3.1-3.8,4.7c2,1.7,3.5,3.5,6.1,4.1c3.2,0.8,6.6,0.8,9.9,0.7
	c2.8,0,4.8-2.5,6.8-4.1c2-1.8,3.9-3.1,6.4-4.2c-0.3,2.4-0.8,4.7-1.3,7.1c-2.1,0.3-4.1,0-5.8,1.4c-2.3,1.5-3.8,3.7-6.8,3.5
	c-4.6,0-8.5,2.8-13.2,2.7c-4.6,0-7.9-2.1-11.8-4.3c-2.4,1.7-4.8,3.7-7.4,5c-2.3,1.1-5.1,0.2-7.4-0.2c3.1-1.9,5.8-3.9,8.1-6.8
	c-0.5-2.2-1.3-4.5-1.3-6.8c1.2-1.7,3.2-1.1,4.6,0c2.7,2.1,4.9,4.5,8,5.9C609.7,510.8,609.9,504.9,613.7,500z"/>
<path class="st1" d="M436.5,513.2c1.5-0.2,2.9,0,4,1.3c2.3,2.8,4.1,5.8,6.4,8.7c-2.9-0.4-5.9-0.9-8.8-0.9c0.4,2.3,1.2,4.3,2,6.5
	c-2.3,2-5.5,4.3-6,7.5c-0.4,3-0.8,5.9-1.8,8.8c-1,0-2.1,0-3.1,0c0.6-3.2,2.2-6.2,0.2-9.2c-1.6-1.6-4.1-2.2-6.2-2.3
	c-2.3,0.6-3.9,3.7-6.3,4.2c-2.9,0.4-6,0-8.9-0.1c2.7-2.8,5.2-6,8.2-8.4c3.1-2.4,7.1,1.6,10.2-0.7
	C431.7,525.2,433.5,518.2,436.5,513.2z"/>
<path class="st1" d="M413.2,518.6c1.2-0.2,2.4-0.4,3.5-0.6c0.1,1.4,0.2,2.9,0.3,4.3C414.7,521.4,413.6,521.5,413.2,518.6z"/>
<path class="st1" d="M617.4,532.2c0,1.4,0,2.8-0.1,4.1c-1.5-0.6-2.9-0.8-3.8-2.2C613.9,531.7,615.7,532.6,617.4,532.2z"/>
<path class="st1" d="M629.3,535.1c2.3-0.3,4.7,1.4,6.7,2.4c-1.2,2.9-2.3,5.4-1.3,8.7c1,4.6,3.5,9.5-0.8,13.2
	c-1.8-0.6-3.4-1.4-3.5-3.6c0.3-2,1.3-3.9,1.5-5.8c-0.2-2.6-1.9-4.6-3.5-6.6c-7.6,5.6-15.4,10.3-24.7,12.5c1.1-4,2.9-7.7,3.9-11.7
	c3.6-0.1,7,0.5,10.5,1.3c0.7-1.3,1.4-2.6,2-4c1.6,0,3.6,0.3,5-0.4C626.7,539.4,627.5,536.5,629.3,535.1z"/>
<path class="st1" d="M361.2,539.1c-0.7,3.2-0.7,3.2-3.8,4c0.1-0.9,0.2-1.7,0.3-2.6l0.5-0.3C359.2,539.8,360.2,539.4,361.2,539.1z"/>
<path class="st1" d="M445.3,539.1c1.2-0.4,2.5-0.7,3.9-0.8c-0.8,2.2-2.1,4.3-2.5,6.6c0.1,1.6,0.6,3.1,0.7,4.7
	c-2,5.4-4.2,10.5-10,12.4c-0.9-1.4-1.8-2.8-2.6-4.2c2.5-2.4,5.9-4.6,7.8-7.5C443.7,546.7,443.1,542.8,445.3,539.1z"/>
<path class="st1" d="M459.3,546.3c0.8-0.1,1.5-0.1,2.3,0c0.7,1.5,0.7,2.9,0.8,4.5c-1.3,0-2.6,0.1-3.9,0.1
	C458.6,549.2,458.3,547.8,459.3,546.3z"/>
<path class="st1" d="M414.6,548.2c2.2-0.3,4.4,0.1,6.5,0.5c-2.4,1.6-4.4,1.7-7.2,1.7C414.1,549.8,414.3,549,414.6,548.2z"/>
<path class="st1" d="M561.1,553.2c-0.1,1.1-0.2,2.2-0.2,3.3c-1.1,0.1-2.1,0.2-3.2,0.3c0.2-0.8,0.5-1.6,0.7-2.4
	C559.3,553.9,560.2,553.5,561.1,553.2z"/>
<path class="st1" d="M649.7,556.2c0.5,1.5,0.9,3,1.2,4.6c-1.6,0-3.1,0-4.7-0.1C647.1,558.5,646.8,556.5,649.7,556.2z"/>
<path class="st1" d="M556.3,562.1c1.3-1.5,3.1-0.1,2.2,1.6C557.2,565.2,555.4,563.8,556.3,562.1z"/>
<path class="st1" d="M625.1,564.7c-0.6,1-1.1,2-1.7,3c-3.1-0.2-6.8,0.9-9.1-1.6C617.9,564.4,621.4,564.7,625.1,564.7z"/>
<path class="st0" d="M315.4,567.2c2.8-2.3,6.2,0.8,7.8,3.1c0.3,2.1-0.1,5.3-2.3,6.3c-3.4-0.6-6.4-3-7.3-6.4
	C313.9,568.8,314.5,567.8,315.4,567.2z"/>
<path class="st3" d="M361.4,567.2c1.8-1.2,3,1.5,0.8,2C361,568.9,360.8,568.2,361.4,567.2z"/>
<path class="st1" d="M433,570.3c2.3,0.7,4.6,1.7,6.8,2.7c-0.7,1.6-1.7,3.3-2,5.1c0,3.9,2.2,8,2,11.9c-0.1,1.8-1.2,3.7-1.8,5.3
	c-1.1-0.6-2.3-1.2-3.3-2c-1.1-2.7,0.9-5.4,1-8c-0.4-2.2-2.1-4.4-3.4-6.2c-7.5,5-15.7,10.7-24.8,12.2c0.8-2.8,1.9-5.4,2.8-8.2
	c0.4-1.3,0.6-2.4,1.7-3.3c3.2-0.4,6.6,0.9,9.8,1.4c0.7-1.2,1.3-2.4,2-3.5c1.5-0.2,3.7,0.2,5-0.8C430.3,574.8,431.4,572.3,433,570.3z
	"/>
<path class="st1" d="M646.7,575.2c1.8,0.5,3.2,2.6,4.4,3.9c-2.2,1.4-4.4,3-7,3.4c-2.9-1.6-2.9-4.1-2.8-7.1
	C643.2,575.1,644.8,574.5,646.7,575.2z"/>
<path class="st1" d="M452.4,580.5c1.4,0.8,2.5,2.4,3.6,3.6c-2.2,1.5-4.2,2.9-6.9,3.5c-3.2-1.5-2.9-4.2-2.8-7.2
	C448.2,580.2,450.5,579.9,452.4,580.5z"/>
<path class="st2" d="M533.3,581.1c0.9,0.1,1.8,0.3,2.8,0.5c-2,1.9-5.7,3.2-6.9,5.6c-0.2,3,1.9,6.4,4.3,8.2c1.7,0.5,4-0.5,5.7-0.8
	c2.3,3.7,4.4,7.5,7.4,10.7c-1.1,1.2-1.7,3.3-3.6,3.2c-1.8,0.3-4.1-0.1-5.7,0.8c-1.2,1.1-3,2.5-2,4.2c2.3,2.4,5.4,3.9,7.8,6.2
	c-3.5,3.5-6.5,5.5-11.2,7.1c-1.6-2.5-3.1-5.5-5.3-7.5c-1.3-1.2-3.3-2-4.8-0.7c-1.8,1.6-4,3.9-2.9,6.5c1,3.7,1.8,7.5,2.9,11.2
	c0.9,2.9,2.5,5.4,5.7,6c6,1.1,12,2.1,18,3c-0.8,2.5-1.2,5.2-3.6,6.8c-5.3,0.5-9.7-1.4-13.9-4.4c-1.3,1.7-2.5,3.6-4,5.2
	c-0.9,1-2.1,1-3.2,0.3c-3.3-1.9-6.3-4.5-9.2-7c1-1.7,2.3-3.4,2.8-5.3c-1.7-3.7-3.3-5.3-7.6-5c-0.9,3-1.4,5.7-3.9,7.8
	c-2.5,2-5.4,5.1-8.6,5.6c-2.1-1.6-3.7-3.9-5.3-5.9c-4.1,3.4-8.3,5.2-13.8,5.1c-2.1-1.2-3-4.3-4-6.4c6-1.6,12.1-2.7,18.1-4
	c3.1-0.7,4.8-2.9,6.9-5.1c2.3-2.6,5.2-4.2,8.2-5.9c-3.1-3.3-6.5-7.7-10.7-9.5c-4.6-0.6-7,3.5-10.6,4.6c-4.4-0.8-7.3-3.4-10.5-6.3
	c2.3-2.3,7.4-4.4,7.9-7.8c-2.1-4.2-5.3-2.5-9.1-3.3c-1.2-0.7-1.9-2.2-2.8-3.3c4.2-3.4,6-8.7,9.9-12.2c1.8-0.2,3.7,0.2,5.5,0.4
	c-0.8-3.3-2.1-6.1-0.4-9.4c2.9,1.4,5.1,3.4,8.5,2.7c7.8-1.3,15.2-0.5,23-0.7c4.1-0.1,8.2,0.3,12.3,0.4
	C529.3,582.8,531.3,581.7,533.3,581.1z"/>
<path class="st1" d="M661.5,580.2c1.5-0.1,2.8,0.2,3.8,1.4c2.3,2.6,4.1,5.7,5.9,8.6c-2.6-0.5-5.2-1.1-7.8-1.7
	c-0.5,2.7,0.3,4.7,1.4,7.1c-2.4,2-6.2,4.9-6.2,8.4c-0.5,3.6,0,7.6-4.4,8.6c0.1-2.6,1.6-5.9,0.8-8.3c-1.3-3.5-4.9-3.3-8-4
	c-1.4,1.4-2.8,3.2-4.6,4.2c-3.1,0.7-6.5,0.2-9.6,0c2.7-2.8,5.2-6,8.3-8.3c3.1-2.4,6.9,1.9,10.2-0.7
	C656.6,592.2,658.4,585.2,661.5,580.2z"/>
<path class="st1" d="M179.2,590.7c1.3,3.7,2.6,7.4,3.8,11.1c-18.2,8.2-36.5,16.3-54.8,24.5c-4.8,2.2-9.7,4.2-14.3,6.6
	c7-1,13.9-2.7,20.9-3.9c17.9-3.6,35.8-7,53.7-10.7c1.3,3,2.4,6.2,3.4,9.3c-22.9,11.1-46,21.8-68.9,33.1c23.1-5.1,46-10.6,69.1-15.9
	c1.8-0.4,3.6-0.7,5.5-1c1.1,3.4,2.3,6.8,3.4,10.2c-35.8,7.3-71.6,14.4-107.4,21.7c-1.3-3.5-2.5-7-3.6-10.5
	c16.9-8.2,33.8-16.4,50.6-24.6c3.6-1.8,7.3-3.4,10.7-5.5c-4.6,0.5-9.1,1.6-13.6,2.4c-17.9,3.5-35.8,7.2-53.7,10.5
	c-1.2-3.5-2.4-6.9-3.6-10.4c2.3-1.2,4.6-2.3,6.9-3.4C117.9,619.7,148.5,605.2,179.2,590.7z"/>
<path class="st2" d="M328.1,591.9c2.9,0.9,6.8,1.7,9,3.9c3.9,5.2,5,11,3.8,17.4c-2.5-1.5-5-2.9-7.9-3.4c0,3.2,0.4,6.3,1,9.4
	c-3.8,0.9-7.6,1.5-11.4,2.5c-3.2,1.2-5.6-2.4-8.6-3.3c-1.4,0.1-3.5,1.4-3.6,2.8c0.2,1.7,1.4,3.6,2.7,4.6c2.6,0.7,5.5,0,8,1.2
	c2.8,1.4,5.8,2.8,8.1,4.8c2.2,5.2,3.9,10.6,6.3,15.8c-7.5-1.1-11-7-17.7-9.5c-3.8-1.6-6.9,4.2-5,7.2c3.2,5.4,8.8,9.4,14.6,11.6
	c-1.9,1.8-3.8,3.5-6.4,4.2c-2.1,0.7-4.7-0.3-6.9-0.3c-3.2,0.6-5.2,3.3-8.7,2.8c-4.1-0.3-7.5,0-11,2.5c1,2.1,2,4.3,3.7,5.8
	c1.9,1.7,4.4,2.9,6.6,4c-0.4,1.1-0.7,2.2-1.1,3.3c-2.4-1.2-5-3.1-7.6-3.4c-1.7,0.2-4.2,1.1-4,3.2c0.4,3.7,4.7,6.5,8.1,7.1
	c3.5,0.8,7.1-1.2,10.4-0.8c1.1,1.6,1.8,3.6,3.1,5.1c2.1,1.6,4.4,1.9,5.7,4.4c1.1,1.4,2,4.2,3.9,4.7c3.1-0.8,5.5-2.5,8.8-2.7
	c2.6-0.1,5.3-0.2,7.9,0.2c3.1,2,5.9,5.8,9.5,6.8c2.2,0.4,4.7-0.1,6.9-0.4c3.9-0.6,7.3-0.3,10.9-2.3c3.6-1.7,5.9-5,9.3-6.9
	c2-1.2,4,0.8,5.4,2c1.2,1.4,3.2,3.5,2.8,5.5c-0.7,5-2.6,9.5-4.8,13.9c-1.4,2.8-2.1,5.8-3.5,8.6c-1.4,1.3-3.4,2-5.1,2.8
	c-4.2,1.9-8.1,4.4-11.7,7.3c-2.5,1.8-3,5.6-3.9,8.4c-2.6,0-5.4,0.3-8-0.3c-3.2-1.5-5.9-4.1-8.8-6.2c-41.3-31.9-73.6-75.2-92.2-124
	c-2.1-5.7-4.2-11.3-5.7-17.2c2.6,0.9,4.9,2.3,7.6,3c3.8,0.4,7.8-0.5,11.6-0.2c4.7,0.3,9.3,0.4,14,0c7.4-0.6,14.6-0.1,22,0.2
	c7.3,0.4,13.8-1.2,21-0.1c4,0.5,8,1.8,12,1.9c1.8,0,2.6-1.9,3.7-3.1c-1.3-0.1-2.7-0.2-4-0.3C328.5,595,328.3,593.5,328.1,591.9z"/>
<path class="st2" d="M683.8,597.1c1.8,0.8,2.9,3,4,4.6c0.2-1.1,0.5-2.2,0.7-3.4c3.8-0.4,7.7-0.6,11.5-0.5c7.7,0.2,15.3-0.4,23,0.2
	c5,0.4,10,0.4,15,0c8.4-0.6,16.6,0,25-0.1c6.5-0.2,12.7,0.9,19.1,0.2c-17.9,57.2-55.4,108.2-103.8,143.3c-1.4,1-2.6,1.4-4.4,1.4
	c-4.3,0.1-8.7,0.1-13,0c-3.4,0.2-6.1-3.2-8.9-4.9c-3.8-2.9-8.3-3.5-12.3-5.8c-3.5-2.3-3.2-6.4-3.4-10.2c0.1-4.9-1.8-9.9-1.2-14.7
	c0.9-3.2,3.2-6.2,4.9-9c3.4,1.8,5.9,4.5,9,6.7c5,3.6,10.6,2.8,17.1,3.9c5.1,0.8,8.3-4.4,12-6.9c2.6-0.5,5.3-0.3,7.9-0.3
	c3.6,0.1,6.3,1.9,9.8,2.6c1.8-1.6,2.8-4.2,4.3-6.1c1.5-1.3,3.4-2,4.9-3.1c1.3-1.7,2.1-3.8,3-5.7c3.2,1,6.4,2.1,9.8,1.7
	c4-0.4,7.7-3.2,8.9-7c-0.3-2.7-3.3-4-5.7-3.2c-2.2,0.8-4.1,2.2-6.1,3.4c-0.4-1.2-0.8-2.4-1.2-3.7c3.1-1.6,6.6-3,8.5-6.1
	c0.8-1.8,2.1-3.1,0.3-4.8c-3.5-2.1-7.7-1.6-11.5-1.6c-2.2-0.5-4.2-1.8-6.3-2.5c-2.2-0.2-4.4,0.4-6.5,0.3c-2.6-0.6-5-2.4-7.2-3.8
	c5.4-3,11.8-6.8,14.8-12.3c1.5-3.6-0.6-5.4-2.7-8c-7.4,3.2-11.2,9.1-19.2,10.4c1.3-3.3,3-6.4,4.3-9.6c-2.3,0.7-4.6,1.4-6.9,2
	c2.1-5.4,4.2-10.8,5.5-16.5c2.9-1.4,5.6-3.2,8.5-4.6c2.2-1,4.7-0.7,6.9-1.5c1.5-1.6,2.4-3.9,3.3-5.8c-1.3-0.4-2.8-1.5-4.2-1.3
	c-2.2,0.9-4,3.1-6.3,3.7c-4.5-0.4-8.9-1.3-13.4-2.1c0.4-2.3,1-4.7,1-7.1c0-1.4-0.9-2.3-2.4-2c-2,0.9-3.7,2.3-5.5,3.5
	c-1.5-5.9-1.2-9.7,1.5-15.1C678.7,595.8,681.5,596,683.8,597.1z"/>
<path class="st1" d="M414.2,598.3c3.5-0.3,4.9,1.9,7.3,3.9c-1.3,1-2.7,2-4,3.1C416.1,603,414.2,601.2,414.2,598.3z"/>
<path class="st1" d="M847.4,599.5c9.4-2.8,17.6,1.8,26.6,4.1c-0.9,3.7-2,7.2-3.2,10.8c-6-1.4-12.5-4.8-18.7-4.5
	c-7.1,0.5-9.6,10.9-3.9,14.8c5.6,3.6,13.4,4.2,19.8,3.5c12.4-1.8,22.9-7.9,35.4-10c10.1-1.8,20.9-1.1,29.8,4.4
	c5.1,3.2,8.9,8.2,9.6,14.3c1,9.5-4.3,20.1-13.9,22.9c-8.8,2.8-17.3-1.8-25.6-4.1c1.1-3.7,2.3-7.4,3.5-11.1c4.8,1.4,9.5,3.2,14.4,4.2
	c3.4,0.7,7.5-0.2,9.6-3.2c2.9-4.1,2.6-10.1-2-12.8c-5.7-3.3-13.1-4.2-19.6-3.6c-11.3,1.2-20,6.3-31.1,8.7
	c-10.1,2.3-21.5,3.4-31.1-1.3c-5.7-2.7-10.7-7.2-12.3-13.6C832.6,613.8,837.5,602.3,847.4,599.5z"/>
<path class="st1" d="M407.7,609c-1.1,4-4.3,3.5-7.7,3.8c1.3-1.6,2.5-3.3,4-4.8C405.1,606.7,408.1,606.7,407.7,609z"/>
<path class="st1" d="M397.2,608.8c-0.6,4.7-4.1,7-8.4,8.2C390.7,613.6,394.1,610.9,397.2,608.8z"/>
<path class="st2" d="M466.5,612c-2.5,1.9-6.2,3.7-7.6,6.6c-0.2,2.8,0.4,5.7,0.3,8.6c-5.7-0.5-7.6-5.1-12.6-7.2
	c-2.2,5.4-3.4,11-6.6,16.1c-1.7-0.5-3.5-1.1-5.2-1.3c-3.8-0.5-7.8,1.9-11.5,1.5c-2.2-1.8-3.1-4.1-3.8-6.8c2.6-0.1,5.8,0.5,8.1-0.8
	c2.2-1.1,3-3.2,4.2-5.2c1.7,1.5,3.5,3.3,5.5,4.3c1.9,0.5,3.1-2.6,4.2-3.7c-4.5-5-10.8-5.4-17.1-4.6c-4.7,2-7.1,6.8-12.5,8
	c0.4-2.2,0.8-4.5,1.9-6.5c4-1.3,7-3.5,10.7-5.3c4.3-0.6,8.3-1.9,12.6-2.9c5.4-1,9.7,1.2,14.2,3.8c2.5-1.6,4.9-3.5,7.6-4.8
	C461.1,610.6,464,611.6,466.5,612z"/>
<path class="st2" d="M643.9,614.9c3.3,1.4,6.5,2.7,9.8,3.9c-0.4,0.9-0.9,1.8-1.3,2.7c-3.3,0.9-6.6,1.9-9.8,3.1c-1.9,1-3.8-2.2-5-3.2
	C639.5,619,641.5,616.8,643.9,614.9z"/>
<path class="st1" d="M574.7,615.9c0.4,1.6,0.7,3.2,1.1,4.8c-1.8,0-3.7,0-5.5-0.1C571.4,618.4,572.7,617.2,574.7,615.9z"/>
<path class="st2" d="M619.7,616c2.9,1.3,5.6,3.5,8.7,4.3c2.2,0.3,4.6-0.2,6.9-0.3c-1,5.4-4.6,8.9-9.7,10.6c-0.5-2.4-0.3-5.3-2-7.3
	C621.9,620.9,619.8,619.3,619.7,616z"/>
<path class="st1" d="M389.1,621.5c0.2,1.6,0.4,3.2,0.6,4.8c-1.7,0-3.3,0-5-0.1C385.4,623.6,386.9,622.8,389.1,621.5z"/>
<path class="st2" d="M341,624.1c1.8-1.2,2.9,1.6,0.9,2C340.8,625.8,340.5,625.1,341,624.1z"/>
<path class="st2" d="M669.2,630c3.5,0.8,4.2,1.7,5.4,5.1c-1.9-0.3-3.9-0.7-5.7-1.2C668.9,632.6,669,631.3,669.2,630z"/>
<path class="st2" d="M440.3,641.2c3.6,0.8,7.1,2.6,10.5,3.9c-2.8,4.1-8.2,3.6-12.8,6c-1.3-1.2-2.4-2.5-3.6-3.9
	C436.2,645.2,438.1,642.9,440.3,641.2z"/>
<path class="st1" d="M827.7,640.4c3.3,1.5,6.5,3.1,9.7,4.7c-3.1,6.9-6.5,13.7-9.6,20.6c10.8,5.1,21.6,10.3,32.4,15.3
	c2.5-4.8,4.7-9.8,7-14.7c3.3,1.4,6.6,2.9,9.8,4.6c-2.3,4.9-4.7,9.9-6.9,14.8c11.9,5.7,23.9,11.3,35.8,17c3.3-6.8,6.5-13.7,9.7-20.5
	c3.4,1.4,6.8,3.1,10.1,4.7c-5,10.4-9.9,20.9-14.9,31.3c-32.8-15.4-65.5-30.9-98.2-46.5C817.6,661.3,822.3,650.6,827.7,640.4z"/>
<path class="st2" d="M416.5,642.1c2.9,1.3,5.7,3.6,8.8,4.4c2.1,0.2,4.3-0.3,6.4-0.5c-0.3,5.6-4.5,8.7-9.2,10.7
	c-0.3-1.8-0.5-3.6-1-5.3C419.9,647.8,416.4,646.2,416.5,642.1z"/>
<path class="st2" d="M624.5,648.9c-2.6,1.7-5.3,3.5-8,5.1c-0.9-0.8-1.8-1.5-2.7-2.3c1.4-1.8,2.5-3.5,4.8-4.2
	C620.9,646.5,622.4,648,624.5,648.9z"/>
<path class="st2" d="M507.2,652c3.4,6.1,7.8,11.4,12.5,16.6c-5.3,2.9-11.2,3.9-16.3,7c-0.8-4.6-3.7-7-6.3-10.6
	C500.2,660.6,503.5,656,507.2,652z"/>
<path class="st2" d="M631.1,656.2c3.3,0.3,4.7,0.4,6.2,3.7C634.3,659.7,631.1,660.3,631.1,656.2z"/>
<path class="st1" d="M466.1,656.4c2.5,1,3.7,2.1,5.2,4.2c-1.6,0-3.2,0-4.9-0.1C466.4,659.1,466.2,657.7,466.1,656.4z"/>
<path class="st2" d="M444.6,661.9c2.1,0.2,4.1,0.6,6.1,1c-0.1,1-0.1,2-0.2,3.1C447.5,665.2,446.2,665,444.6,661.9z"/>
<path class="st1" d="M206.7,667.2c9.3,4.4,14.4,16.4,10.6,26.1c-2.2,5.6-6.5,9.5-11.7,12.4c-15.4,8.6-30.9,17.1-46.2,25.7
	c-4.3,2.4-8.5,4.9-12.9,7.1c-5.5,2.7-11.7,3.8-17.6,1.6c-10.4-3.6-16.5-16.5-12.5-26.9c2.1-5.2,6.1-9.2,10.9-11.9
	c16.9-9.5,33.8-18.8,50.7-28.2c3.7-2,7.3-4.3,11.2-5.9C194.8,664.9,201.2,664.6,206.7,667.2z"/>
<path class="st1" d="M624.3,667.5c2.4-1.1,2.7,2.8,0.5,3.1C623.3,670.5,623.3,668.3,624.3,667.5z"/>
<path class="st2" d="M632.3,668.9c3.3,1.4,3.9,4.2,4.9,7.4c-2.7-1-4.6-2.1-6.5-4.2C631.2,670.9,631.7,669.9,632.3,668.9z"/>
<path class="st2" d="M582,670c3.7,0.8,7.1,1.9,9.5,5c-3.3-0.4-6.4-1.1-9.6-2.1C581.9,671.9,581.9,670.9,582,670z"/>
<path class="st1" d="M610.5,670.1c1.3-1.4,3.2,0.1,2.3,1.7C611.6,673.1,609.7,671.7,610.5,670.1z"/>
<path class="st2" d="M479.4,671.3c2-0.5,4.2-0.5,6.3-0.6c0,1.1,0,2.1,0,3.2c-2.4,0-4.9,0-7.3,0C478.7,673,479.1,672.2,479.4,671.3z"
	/>
<path class="st2" d="M438.2,673.3c1.7-1,2.8,1.2,1.5,2.4C438,676.7,437.1,674.5,438.2,673.3z"/>
<path class="st1" d="M425.4,675.1c2-0.4,3,2.1,0.9,2.7C424.3,678.1,423.4,675.8,425.4,675.1z"/>
<path class="st2" d="M447,674.2c2.2,2.2,3.4,4.4,4.3,7.3c-3.1-0.9-4.6-1.8-6.6-4.4C445.5,676.1,446.2,675.1,447,674.2z"/>
<path class="st2" d="M464.4,675.9c2.1-0.5,2.6,2.3,0.7,3C463,679.2,462.6,676.7,464.4,675.9z"/>
<path class="st0" d="M199.9,677c6,1,9.6,9.5,5.5,14.4c-2.4,2.8-6.5,4.5-9.6,6.3c-17.4,9.7-34.7,19.2-52,29c-2.3,1.2-5.1,2.9-7.8,3.1
	c-6.6,0.5-12-8.5-8-13.9c2.1-3,6.3-4.8,9.4-6.6c18.2-10.1,36.4-20.2,54.6-30.4C194.4,677.6,197,676.5,199.9,677z"/>
<path class="st1" d="M808.8,679.9c26.4,23.7,52.6,47.7,79,71.4c0.7,0.8,1.8,1.6,2.1,2.6c-1.8,3.4-4.1,6.5-6.1,9.7
	c-33.3-15.3-66.5-30.8-99.6-46.4c2.2-3.5,4.4-6.9,6.7-10.3c20.1,10.1,40.2,20,60.3,30.1c4.2,2.1,8.5,4.4,12.8,6.2
	c-20.4-18.1-41.2-35.7-61.6-53.8C804.4,686.2,806.4,682.9,808.8,679.9z"/>
<path class="st2" d="M587.1,681.4c1.7-0.9,2.9,1.1,1.6,2.4C587,684.8,585.8,682.7,587.1,681.4z"/>
<path class="st2" d="M496.5,682.4c-3.1,1.5-5.4,1.9-8.9,1.6C490.4,681.6,493.1,682.2,496.5,682.4z"/>
<path class="st2" d="M519.5,687.9c-3.7,1.6-7.1,3.5-11.3,2.2c-0.8-1-0.9-2.5-1.2-3.7C511.2,686.4,516.2,684.4,519.5,687.9z"/>
<path class="st2" d="M451.5,702.7c-0.4,2.9-1.4,5.9-1.1,8.8c2.1,1.6,4.8,1.5,7.3,1.9c0.6,2.3,0.8,5.8,2.8,7.3c3,0.3,6.3-1.1,9-2.5
	c2.9-1.4,3.4-4.7,4.6-7.4c0.5,2.7-0.2,7.9,3.3,8.6c4.9-0.1,11.1,0.3,14.7-3.6c-3.7-2.8-8-4.2-12.2-6c0.8-2.4,1.5-4.8,2.4-7.1
	c2.3,0.6,4.7,1.4,7.1,1.7c3.5,0.2,6.6-1.5,10.2-1c4,0.6,8.2,0.2,12.1,1.1c4.5,1.5,9.7,4.4,14.7,4.9c2.9,0.2,6-1.2,8.9-1.9
	c0.9,2.4,1.7,4.8,2.5,7.2c-4.3,1.8-8.6,3.2-12.3,6.1c3.6,3.7,7.7,3.1,12.4,3.6c1.1,0,2.7,0.3,3.5-0.5c2.1-1.5,1.7-4.9,2.1-7.2
	c1.4,2.6,2.3,5.3,5.1,6.6c2.6,1.2,5.5,2.3,8.4,2.3c2.2-0.9,2.3-5.4,2.9-7.4c2.2-0.5,6.2-0.2,7.4-2.4c0.9-2.5-0.1-5.8-0.3-8.4
	c1.3-0.3,2.7-0.6,4.1-0.7c3.3,1.5,6,4.5,9,6.6c1.7-0.6,3.4-1.5,5.2-1.9c3.4,0.6,6.6,1.8,9.9,2.7c-0.6,3.7-1.1,7.7-2.5,11.1
	c-1,2.5-3.4,3.9-5.5,5.5c-3.9,2.7-7.8,5.9-12.2,7.8c-4.2,1.9-8.9,0.3-12.8,2.2c-2.2,1-4.4,1.9-6.9,1.8c-29.7,0-59.4,0-89.1,0
	c-3.5,0-7.2,0.2-10.7-0.3c-3.7-1.3-6.8-3.9-10.6-5.2c-4.8-1.9-11.2-3.1-14-8c-2.9-5.9-3.9-12.9-5.2-19.2c2.2-1.1,4.3-2.4,6.6-3.2
	c1.9,0.3,3.8,1.2,5.7,1.5c2.8-1.8,4.9-5,7.9-6.6C447.5,700.7,449.8,702.2,451.5,702.7z"/>
<path class="st1" d="M231.1,705.1c4.8,5.8,9.4,11.8,14,17.8c4,5.1,5.2,12.2,1.9,18c-3.2,5.8-10.1,9.8-15.1,14
	c-4.7,3.4-9.3,8-14.7,10.2c-3.7,1.5-7.1,0.5-10.6-0.8c0.2,3,0.5,5.8-0.7,8.6c-2,4.8-6.8,8-10.8,11.2c-5.2,4.1-10.6,8.1-15.7,12.3
	c-2.1,1.6-2.1,3.7-3.2,5.9c-1.5,1.6-3.4,2.9-5.1,4.2c-2.1-2.7-5-6-5.5-9.5c-0.5-3.9,2.6-6.8,5.3-9c7.4-5.9,15-11.7,22.5-17.5
	c2.4-1.9,4.9-5,4.1-8.3c-1.4-3.7-4.6-6.8-6.9-9.9c-12.7,9.5-25,19.6-37.7,29.1c-2.6-3-5-6.2-7.3-9.4c5.7-4.8,11.7-9.2,17.5-13.8
	C185.8,740.4,208.4,722.6,231.1,705.1z"/>
<path class="st2" d="M461,705.9c0.9,0,1.8,0,2.7,0.1c0.8,1,1.2,2.4,1.7,3.6c-1.5,0-3,0-4.6,0C460.8,708.4,460.9,707.2,461,705.9z"/>
<path class="st0" d="M229.8,721.6c2.3,3.2,5.4,6.2,6.9,9.8c0.9,3.6-1.3,5.6-3.8,7.6c-5.9,4.5-11.6,9.1-17.5,13.6
	c-2.7,2.1-6.4,3.6-9.5,1.5c-2.8-2.2-4.9-5.6-7.1-8.3C209,737.5,219.4,729.4,229.8,721.6z"/>
<path class="st1" d="M777,725.3c27.9,23.1,55.7,46.3,83.4,69.6c-2.5,3.1-5.1,6.1-7.6,9.2c-28-23-55.5-46.5-83.5-69.5
	C771.7,731.4,774.2,728.2,777,725.3z"/>
<path class="st1" d="M762.2,743c2.8,2.4,5.3,5.3,7.9,8c-3.3,3.3-6.7,6.5-10,9.8c22.5,23.3,45,46.7,67.5,70.2
	c-2.7,2.8-5.6,5.5-8.5,8.1c-19-19.7-37.9-39.5-57-59.2c-3.5-3.7-7-7.4-10.7-10.9c-3.4,3.4-6.8,6.7-10.3,10c-2.6-2.7-5.2-5.4-7.7-8.1
	C742.9,761.5,752.6,752.3,762.2,743z"/>
<path class="st1" d="M264,745.8c3,2.4,5.9,5.3,8.6,8.1c-8.2,8.8-16.5,17.3-24.7,26.1c-4.1,4.4-8.7,8.6-12.3,13.4
	c1.6-0.7,3.1-1.4,4.6-2.2c15.3-8.2,30.5-16.6,45.8-24.8c2.8,2.6,5.6,5.2,8.4,7.9c-13.9,7.6-28.3,14.4-42.3,21.7
	c-1.6,0.8-2.5,2.1-3.3,3.6c-9.6,17.9-19.2,35.9-28.8,53.8c-3.1-2.7-6-5.6-9-8.4c7.8-14.4,16.1-28.6,24-42.9
	c-5.7,3.1-11.9,5.8-17.1,9.7c-6.7,6.9-13.3,13.9-19.9,20.8c-3-2.7-5.8-5.5-8.7-8.2c15.5-16.2,30.9-32.5,46.4-48.8
	C245.1,765.7,254.3,755.5,264,745.8z"/>
<path class="st1" d="M301.9,780c9.5,6.6,18.8,13.4,28.2,20c-2.1,3-4.2,6-6.4,9c-6.3-4.2-12.4-8.9-18.7-13.1
	c-6.9,9.8-13.9,19.4-20.8,29.2c4.4,3.3,8.9,6.3,13.2,9.6c-2,2.9-4.1,5.9-6.3,8.7c-4.4-3.1-8.8-6.4-13.3-9.4
	c-7.6,10.8-15.3,21.5-23,32.2c6,4.6,12.5,8.8,18.5,13.5c-2.1,3-4.2,6-6.5,8.9c-9.4-6.7-18.8-13.4-28.2-20c2.6-3.9,5.4-7.8,8.1-11.6
	C265.3,831.4,283.5,805.5,301.9,780z"/>
<path class="st1" d="M719.2,781.7c2.2,1.8,4.2,3.9,6.2,5.9c23.8,23.8,47.5,48,71.3,71.8c-3.2,2.6-6.5,5-9.8,7.4
	c-5.5-5.6-10.8-11.4-16.2-17c-3.8,2.8-8,5.3-11.4,8.5c-0.2,0.6,0,1.3,0.4,2c3.3,6.4,6.8,12.7,10.2,19.1c-2.9,2.3-5.9,4.6-9,6.7
	c-17.3-32.3-34.3-64.8-51.5-97.1C712.6,786.5,715.8,784,719.2,781.7z"/>
<path class="st1" d="M339.1,805.7c5.9,2.7,11.6,5.9,17.4,8.7c4.7,2.4,8.8,5,11,10c2.1,5.2,0.9,10.8-1.5,15.7
	c-2.8,5.8-5.9,11.4-8.8,17.2c-1.8,3.5-3.9,7.6-7,10c-2.4,1.9-5.4,2.1-8.3,2.5c1.1,2.4,2.4,4.7,2.6,7.4c0.3,3.6-0.7,6.9-2.3,10.1
	c-3.9,7.8-8.1,15.4-11.9,23.2c-1.2,2.1-0.1,3.9-0.1,6.2c-0.7,2.2-2,4.2-3.1,6.2c-3.1-1.7-7.6-3.6-9.3-6.8c-1.6-3.4,0.1-7.4,1.6-10.5
	c4.2-8.4,8.7-16.7,12.9-25.1c1.4-2.9,2.2-7.2-0.5-9.6c-2.9-2.4-6.7-3.8-10-5.5c-7.4,14.1-14.5,28.3-21.9,42.4
	c-3.6-1.8-7.2-3.6-10.7-5.5C306,870.1,322.5,837.8,339.1,805.7z"/>
<path class="st0" d="M730.9,808c3.5,3.2,6.6,6.8,9.8,10.2c7.3,7.9,14.8,15.5,21.9,23.5c-3.1,2.3-6.2,4.7-9.5,6.8
	C745.8,835,738,821.7,730.9,808z"/>
<path class="st1" d="M690.9,811c6,3.9,8.9,11.7,12.3,17.7c2.7,5.5,6.8,11.2,7.9,17.3c0.7,3.6-1,6.5-2.3,9.7c3.1,0.6,5.9,0.8,8.5,2.8
	c4.6,3.3,6.7,8.9,9.3,13.7c2.9,5.2,5.5,10.5,8.4,15.7c1.2,2.5,3.5,3,5.5,4.5c1.3,1.7,2.2,3.8,3.2,5.7c-3.5,1.8-7.4,4.4-11.6,3.6
	c-3.5-0.9-5.2-4.1-7-7c-4.2-7.8-8.4-15.7-12.5-23.5c-1.8-3.2-3.8-6.5-7.9-6.7c-4,0.6-7.8,3.4-11.3,5.3c7.4,14,15,28,22.3,42.1
	c-3.5,2-7,3.8-10.7,5.6c-17-31.9-34-63.8-51-95.7c6.4-3.8,13.1-7.2,19.7-10.6C679.4,808.3,685.7,807.5,690.9,811z"/>
<path class="st0" d="M681,820.5c3.2-0.7,5.3,2.3,6.8,4.7c3.4,6.3,6.7,12.6,10.1,18.9c1.7,3.1,3,7.4,0.6,10.4c-2.6,2.6-6.6,4-9.8,5.8
	c-6.3-11.5-12.3-23-18.5-34.5C673.8,824,677.3,821.6,681,820.5z"/>
<path class="st0" d="M344.9,821.3c3.4,1.7,7.2,3.2,10.2,5.6c2.8,2.5,1.2,6.2-0.1,9c-3.3,6.4-6.6,12.8-9.9,19.2c-1.7,3.1-4,6-7.9,5.6
	c-3.6-0.6-7-3.1-10.2-4.7C332.8,844.4,338.6,832.7,344.9,821.3z"/>
<path class="st1" d="M644.7,825.8c1.2,3.4,2.4,6.8,3.6,10.2c-7.1,2.8-14.3,5.1-21.3,7.8c4,11.3,8.1,22.5,12.1,33.8
	c5.2-1.7,10.2-3.6,15.3-5.5c1.4,3.3,2.6,6.7,3.8,10c-5.1,2-10.3,3.8-15.4,5.7c4.4,12.4,8.9,24.9,13.4,37.3
	c7.3-2.3,14.2-5.3,21.5-7.5c1.3,3.4,2.5,6.8,3.6,10.3c-10.8,4-21.7,7.8-32.6,11.8c-11.4-31.5-22.7-63.1-34-94.6
	c-1-2.6-1.8-5.2-2.7-7.8C622.9,833.6,633.7,829.4,644.7,825.8z"/>
<path class="st1" d="M432.5,841.5c6.8,3.2,10.7,10.1,10.5,17.5c-0.3,8.2-3.6,16.3-5.3,24.3c-3.4-0.7-6.8-1.6-10.1-2.4
	c1.4-6.2,3.2-12.3,4.7-18.5c0.7-3.2,0.5-6.3-1.8-8.8c-3.1-3-8.6-3.9-12.3-1.5c-2.4,1.6-3.3,4.3-4,7c-5.6,22-11.3,44.1-17,66.1
	c-0.4,2-0.9,3.9-0.5,5.9c1.3,6.4,11.3,9.3,15.7,4.2c1.7-1.8,2.3-4.5,3-6.9c1.4-5.4,2.7-10.8,4.2-16.2c3.4,0.8,6.8,1.7,10.1,2.6
	c-1.7,6.3-3.1,12.7-5,19c-1.8,6.1-5.7,11.6-11.7,14.1c-9.9,3.8-22.6-1-26.5-11.1c-2.5-6.1-1.7-12.1,0.1-18.2
	c5.1-19.6,10.1-39.2,15.1-58.9c1.4-6,3.5-11.6,8.3-15.7C416.1,838.4,425.2,837.9,432.5,841.5z"/>
<path class="st1" d="M584.2,844.3c5.5-1,11-0.8,15.5,3c5,4.2,6.2,10.4,7.5,16.5c1.3,7,3,14,4.2,21.1c0.8,5.8,0,11.7-4.3,15.9
	c-5,4.9-12.5,5.2-19,6.7c2.4,15.1,6.2,30,9,45.1c-3.8,0.9-7.7,1.7-11.6,2.2c-7.5-35.4-14.7-70.9-22-106.3
	C570.2,847.2,577.2,845.8,584.2,844.3z"/>
<path class="st1" d="M492.8,857.2c4.1,6.1,4.1,12.8,3.3,19.8c-2.1,20-4,40.1-6,60.1c-0.5,6.2-1.9,12-6.2,16.8
	c-8.5,9.7-26.2,8-32.7-3.1c-4-6.5-3.2-13.3-2.6-20.6c1.6-15,3-30.1,4.5-45.2c1.4-9.6,0.3-21.4,6.7-29.1
	C467.8,845.5,485.7,846.4,492.8,857.2z"/>
<path class="st1" d="M528,850.1c8.1-1.5,16.4,2.1,20.8,9.1c4.5,7.1,3.5,15.8,4.3,23.8c0.5,11.6,1.2,23.2,1.8,34.9
	c0.5,6.4,0.7,12.8,1.2,19.3c0.4,6.6-1,13.3-5.6,18.4c-7.8,8.4-23.1,8.6-30.6-0.2c-4.6-5.2-5.6-11.5-5.9-18.2
	c-0.7-17.7-1.9-35.3-2.8-53c-0.3-7.4-1.7-15.5,1.5-22.3C515.4,855.3,521.2,851.1,528,850.1z"/>
<path class="st0" d="M588.9,855.2c3.4,0.3,4.6,3.6,5.3,6.5c1.7,8,3.3,16,5,24c0.5,3,1.1,6.7-2,8.6c-3.6,1.6-7.9,2-11.8,2.7
	c-2.9-13.2-5.5-26.4-8.2-39.7C581.1,856.5,585,855.3,588.9,855.2z"/>
<path class="st0" d="M484.5,866.3c0.7,4.1-0.1,8.6-0.5,12.8c-1.8,17.3-3.4,34.6-5.2,51.9c-0.6,4.3-0.2,9.7-2.2,13.6
	c-3,5.9-13,5.5-15.9-0.3c-1.7-3.5-0.7-7.6-0.4-11.3c2.1-20.3,4.1-40.6,6.1-61c0.3-3,0.6-6.7,2.6-9.1
	C473,857.8,483.1,859.7,484.5,866.3z"/>
<path class="st0" d="M538.6,864.5c1.5,1.9,1.9,4.1,2,6.5c1.2,20.3,2.2,40.5,3.2,60.8c0.2,4.1,1.2,8.9-0.1,12.9
	c-2.2,6.9-13.4,7.7-16.4,1.1c-1.6-3.9-1.3-8.6-1.6-12.8c-1.2-19.7-2-39.4-3.2-59c-0.1-2.8-0.4-5.9,1.1-8.4
	C526.4,860.2,535,859.8,538.6,864.5z"/>
</svg>
