<svg xmlns="http://www.w3.org/2000/svg" xmlns:xlink="http://www.w3.org/1999/xlink" width="12.316" height="13" viewBox="0 0 12.316 13">
  <defs>
    <clipPath id="clip-path">
      <rect width="12.316" height="13" fill="none"/>
    </clipPath>
  </defs>
  <g id="Icon_Calendar_Black" data-name="Icon/Calendar/Black" clip-path="url(#clip-path)">
    <path id="Path_351" data-name="Path 351" d="M4.368,4h9.579a1.354,1.354,0,0,1,1.368,1.338v8.7a1.354,1.354,0,0,1-1.368,1.338H4.368A1.354,1.354,0,0,1,3,14.037v-8.7A1.358,1.358,0,0,1,4.368,4Zm0,3.346v6.691h9.579V7.346Z" transform="translate(-3 -2.375)" fill="#203131"/>
    <path id="Path_352" data-name="Path 352" d="M6.62,2a.736.736,0,0,1,.62.813V5.25a.736.736,0,0,1-.62.813A.736.736,0,0,1,6,5.25V2.813A.736.736,0,0,1,6.62,2Zm6.2,0a.736.736,0,0,1,.62.813V5.25a.736.736,0,0,1-.62.813.736.736,0,0,1-.62-.812V2.813A.736.736,0,0,1,12.821,2Z" transform="translate(-3.563 -2)" fill="#203131"/>
  </g>
</svg>
