<svg viewBox="0 0 20 20" xmlns="http://www.w3.org/2000/svg"><g id="location" fill="currentColor"><path d="m10.18 1a7.64 7.64 0 0 0 -6 12.32l.33.39c.2.23.42.44.6.61l4.39 4.39a1 1 0 0 0 1.42 0l4.08-4.16a7.87 7.87 0 0 0 1.1-1.13l.1-.12a7.57 7.57 0 0 0 1.59-4.66 7.65 7.65 0 0 0 -7.61-7.64zm4.47 11.08-.07.09a5.56 5.56 0 0 1 -.84.84l-.07.07-3.49 3.49-3.74-3.71a6.36 6.36 0 0 1 -.44-.45l-.28-.34a5.56 5.56 0 0 1 -1.18-3.43 5.65 5.65 0 0 1 11.29 0 5.56 5.56 0 0 1 -1.18 3.44z"/><path d="m10.18 6.53a2.13 2.13 0 1 0 2.13 2.13 2.14 2.14 0 0 0 -2.13-2.13z"/></g></svg>
