<svg xmlns="http://www.w3.org/2000/svg" xmlns:xlink="http://www.w3.org/1999/xlink" width="16.191" height="16.183" viewBox="0 0 16.191 16.183">
  <defs>
    <clipPath id="clip-path">
      <rect width="16.191" height="16.183" fill="none"/>
    </clipPath>
  </defs>
  <g id="Repeat_Grid_141" data-name="Repeat Grid 141" clip-path="url(#clip-path)">
    <g transform="translate(-401.821 -392)">
      <g id="Icon_Search_Black" data-name="Icon/Search/Black" transform="translate(401.821 392)" clip-path="url(#clip-path)">
        <path id="Path_8" data-name="Path 8" d="M13.608,12.459l.892.892a1.237,1.237,0,0,1,.924.357l2.432,2.432a1.216,1.216,0,0,1-1.719,1.719l-2.432-2.432a1.216,1.216,0,0,1-.357-.924l-.892-.892A6.486,6.486,0,1,1,13.6,12.467Zm-5.124.892A4.864,4.864,0,1,0,3.62,8.486,4.864,4.864,0,0,0,8.484,13.351Z" transform="translate(-1.992 -2.002)" fill="#203131"/>
      </g>
    </g>
  </g>
</svg>
