<svg xmlns="http://www.w3.org/2000/svg" width="16.191" height="16.183"><defs><clipPath id="a"><path fill="none" d="M0 0h16.191v16.183H0z"/></clipPath></defs><g data-name="Repeat Grid 141" clip-path="url(#a)"><g data-name="Icon/Search/Black" clip-path="url(#a)"><path data-name="Path 8" d="M11.616 10.457l.892.892a1.237 1.237 0 0 1 .924.357l2.432 2.432a1.216 1.216 0 0 1-1.719 1.719l-2.432-2.432a1.216 1.216 0 0 1-.357-.924l-.892-.892a6.486 6.486 0 1 1 1.144-1.144zm-5.124.892a4.864 4.864 0 1 0-4.864-4.865 4.864 4.864 0 0 0 4.864 4.865z" fill="currentColor"/></g></g></svg>
